M48
INCH,TZ
T1C0.039
%
G90
G05
T1
X51120Y-24720
X51120Y-25720
X51120Y-26720
X51120Y-27720
X51120Y-28720
X51120Y-29720
X51120Y-30720
X51120Y-31720
X53800Y-23440
X53800Y-24440
X53800Y-25440
X53800Y-26440
X53800Y-27440
X53800Y-28440
X53800Y-29440
X53800Y-30440
X53800Y-31440
X53800Y-32440
X53900Y-34460
X54800Y-23440
X54800Y-24440
X54800Y-25440
X54800Y-26440
X54800Y-27440
X54800Y-28440
X54800Y-29440
X54800Y-30440
X54800Y-31440
X54800Y-32440
X54900Y-34460
T0
M30
