G04 #@! TF.FileFunction,Legend,Top*
%FSLAX46Y46*%
G04 Gerber Fmt 4.6, Leading zero omitted, Abs format (unit mm)*
G04 Created by KiCad (PCBNEW 4.0.6) date 03/16/18 17:26:31*
%MOMM*%
%LPD*%
G01*
G04 APERTURE LIST*
%ADD10C,0.100000*%
%ADD11C,0.187500*%
%ADD12C,0.300000*%
%ADD13C,0.120000*%
%ADD14C,0.150000*%
G04 APERTURE END LIST*
D10*
D11*
X131638572Y-77679286D02*
X132067143Y-77679286D01*
X131852857Y-78429286D02*
X131852857Y-77679286D01*
X132245715Y-77679286D02*
X132745715Y-78429286D01*
X132745715Y-77679286D02*
X132245715Y-78429286D01*
X132055000Y-80869286D02*
X131805000Y-80512143D01*
X131626428Y-80869286D02*
X131626428Y-80119286D01*
X131912143Y-80119286D01*
X131983571Y-80155000D01*
X132019286Y-80190714D01*
X132055000Y-80262143D01*
X132055000Y-80369286D01*
X132019286Y-80440714D01*
X131983571Y-80476429D01*
X131912143Y-80512143D01*
X131626428Y-80512143D01*
X132305000Y-80119286D02*
X132805000Y-80869286D01*
X132805000Y-80119286D02*
X132305000Y-80869286D01*
X131734286Y-75883571D02*
X131841429Y-75919286D01*
X132020000Y-75919286D01*
X132091429Y-75883571D01*
X132127143Y-75847857D01*
X132162858Y-75776429D01*
X132162858Y-75705000D01*
X132127143Y-75633571D01*
X132091429Y-75597857D01*
X132020000Y-75562143D01*
X131877143Y-75526429D01*
X131805715Y-75490714D01*
X131770000Y-75455000D01*
X131734286Y-75383571D01*
X131734286Y-75312143D01*
X131770000Y-75240714D01*
X131805715Y-75205000D01*
X131877143Y-75169286D01*
X132055715Y-75169286D01*
X132162858Y-75205000D01*
X132412858Y-75169286D02*
X132591429Y-75919286D01*
X132734286Y-75383571D01*
X132877144Y-75919286D01*
X133055715Y-75169286D01*
X133484287Y-75169286D02*
X133627144Y-75169286D01*
X133698572Y-75205000D01*
X133770001Y-75276429D01*
X133805715Y-75419286D01*
X133805715Y-75669286D01*
X133770001Y-75812143D01*
X133698572Y-75883571D01*
X133627144Y-75919286D01*
X133484287Y-75919286D01*
X133412858Y-75883571D01*
X133341429Y-75812143D01*
X133305715Y-75669286D01*
X133305715Y-75419286D01*
X133341429Y-75276429D01*
X133412858Y-75205000D01*
X133484287Y-75169286D01*
X131868572Y-72665000D02*
X131797143Y-72629286D01*
X131690000Y-72629286D01*
X131582857Y-72665000D01*
X131511429Y-72736429D01*
X131475714Y-72807857D01*
X131440000Y-72950714D01*
X131440000Y-73057857D01*
X131475714Y-73200714D01*
X131511429Y-73272143D01*
X131582857Y-73343571D01*
X131690000Y-73379286D01*
X131761429Y-73379286D01*
X131868572Y-73343571D01*
X131904286Y-73307857D01*
X131904286Y-73057857D01*
X131761429Y-73057857D01*
X132225714Y-73379286D02*
X132225714Y-72629286D01*
X132654286Y-73379286D01*
X132654286Y-72629286D01*
X133011428Y-73379286D02*
X133011428Y-72629286D01*
X133190000Y-72629286D01*
X133297143Y-72665000D01*
X133368571Y-72736429D01*
X133404286Y-72807857D01*
X133440000Y-72950714D01*
X133440000Y-73057857D01*
X133404286Y-73200714D01*
X133368571Y-73272143D01*
X133297143Y-73343571D01*
X133190000Y-73379286D01*
X133011428Y-73379286D01*
X132110715Y-70829286D02*
X131860715Y-70472143D01*
X131682143Y-70829286D02*
X131682143Y-70079286D01*
X131967858Y-70079286D01*
X132039286Y-70115000D01*
X132075001Y-70150714D01*
X132110715Y-70222143D01*
X132110715Y-70329286D01*
X132075001Y-70400714D01*
X132039286Y-70436429D01*
X131967858Y-70472143D01*
X131682143Y-70472143D01*
X132432143Y-70436429D02*
X132682143Y-70436429D01*
X132789286Y-70829286D02*
X132432143Y-70829286D01*
X132432143Y-70079286D01*
X132789286Y-70079286D01*
X133075000Y-70793571D02*
X133182143Y-70829286D01*
X133360714Y-70829286D01*
X133432143Y-70793571D01*
X133467857Y-70757857D01*
X133503572Y-70686429D01*
X133503572Y-70615000D01*
X133467857Y-70543571D01*
X133432143Y-70507857D01*
X133360714Y-70472143D01*
X133217857Y-70436429D01*
X133146429Y-70400714D01*
X133110714Y-70365000D01*
X133075000Y-70293571D01*
X133075000Y-70222143D01*
X133110714Y-70150714D01*
X133146429Y-70115000D01*
X133217857Y-70079286D01*
X133396429Y-70079286D01*
X133503572Y-70115000D01*
X133825000Y-70436429D02*
X134075000Y-70436429D01*
X134182143Y-70829286D02*
X133825000Y-70829286D01*
X133825000Y-70079286D01*
X134182143Y-70079286D01*
X134396429Y-70079286D02*
X134825000Y-70079286D01*
X134610714Y-70829286D02*
X134610714Y-70079286D01*
X131383571Y-68153571D02*
X131490714Y-68189286D01*
X131669285Y-68189286D01*
X131740714Y-68153571D01*
X131776428Y-68117857D01*
X131812143Y-68046429D01*
X131812143Y-67975000D01*
X131776428Y-67903571D01*
X131740714Y-67867857D01*
X131669285Y-67832143D01*
X131526428Y-67796429D01*
X131455000Y-67760714D01*
X131419285Y-67725000D01*
X131383571Y-67653571D01*
X131383571Y-67582143D01*
X131419285Y-67510714D01*
X131455000Y-67475000D01*
X131526428Y-67439286D01*
X131705000Y-67439286D01*
X131812143Y-67475000D01*
X132062143Y-67439286D02*
X132240714Y-68189286D01*
X132383571Y-67653571D01*
X132526429Y-68189286D01*
X132705000Y-67439286D01*
X133419286Y-68117857D02*
X133383572Y-68153571D01*
X133276429Y-68189286D01*
X133205000Y-68189286D01*
X133097857Y-68153571D01*
X133026429Y-68082143D01*
X132990714Y-68010714D01*
X132955000Y-67867857D01*
X132955000Y-67760714D01*
X132990714Y-67617857D01*
X133026429Y-67546429D01*
X133097857Y-67475000D01*
X133205000Y-67439286D01*
X133276429Y-67439286D01*
X133383572Y-67475000D01*
X133419286Y-67510714D01*
X134097857Y-68189286D02*
X133740714Y-68189286D01*
X133740714Y-67439286D01*
X134347857Y-68189286D02*
X134347857Y-67439286D01*
X134776429Y-68189286D02*
X134455000Y-67760714D01*
X134776429Y-67439286D02*
X134347857Y-67867857D01*
X131570714Y-65633571D02*
X131677857Y-65669286D01*
X131856428Y-65669286D01*
X131927857Y-65633571D01*
X131963571Y-65597857D01*
X131999286Y-65526429D01*
X131999286Y-65455000D01*
X131963571Y-65383571D01*
X131927857Y-65347857D01*
X131856428Y-65312143D01*
X131713571Y-65276429D01*
X131642143Y-65240714D01*
X131606428Y-65205000D01*
X131570714Y-65133571D01*
X131570714Y-65062143D01*
X131606428Y-64990714D01*
X131642143Y-64955000D01*
X131713571Y-64919286D01*
X131892143Y-64919286D01*
X131999286Y-64955000D01*
X132249286Y-64919286D02*
X132427857Y-65669286D01*
X132570714Y-65133571D01*
X132713572Y-65669286D01*
X132892143Y-64919286D01*
X133177857Y-65669286D02*
X133177857Y-64919286D01*
X133356429Y-64919286D01*
X133463572Y-64955000D01*
X133535000Y-65026429D01*
X133570715Y-65097857D01*
X133606429Y-65240714D01*
X133606429Y-65347857D01*
X133570715Y-65490714D01*
X133535000Y-65562143D01*
X133463572Y-65633571D01*
X133356429Y-65669286D01*
X133177857Y-65669286D01*
X133927857Y-65669286D02*
X133927857Y-64919286D01*
X134427858Y-64919286D02*
X134570715Y-64919286D01*
X134642143Y-64955000D01*
X134713572Y-65026429D01*
X134749286Y-65169286D01*
X134749286Y-65419286D01*
X134713572Y-65562143D01*
X134642143Y-65633571D01*
X134570715Y-65669286D01*
X134427858Y-65669286D01*
X134356429Y-65633571D01*
X134285000Y-65562143D01*
X134249286Y-65419286D01*
X134249286Y-65169286D01*
X134285000Y-65026429D01*
X134356429Y-64955000D01*
X134427858Y-64919286D01*
X131548572Y-62359286D02*
X131798572Y-63109286D01*
X132048572Y-62359286D01*
X132191429Y-62359286D02*
X132620000Y-62359286D01*
X132405714Y-63109286D02*
X132405714Y-62359286D01*
X133298572Y-63109286D02*
X133048572Y-62752143D01*
X132870000Y-63109286D02*
X132870000Y-62359286D01*
X133155715Y-62359286D01*
X133227143Y-62395000D01*
X133262858Y-62430714D01*
X133298572Y-62502143D01*
X133298572Y-62609286D01*
X133262858Y-62680714D01*
X133227143Y-62716429D01*
X133155715Y-62752143D01*
X132870000Y-62752143D01*
X133620000Y-62716429D02*
X133870000Y-62716429D01*
X133977143Y-63109286D02*
X133620000Y-63109286D01*
X133620000Y-62359286D01*
X133977143Y-62359286D01*
X134548571Y-62716429D02*
X134298571Y-62716429D01*
X134298571Y-63109286D02*
X134298571Y-62359286D01*
X134655714Y-62359286D01*
D12*
X136074286Y-85377143D02*
X136288572Y-85448571D01*
X136645715Y-85448571D01*
X136788572Y-85377143D01*
X136860001Y-85305714D01*
X136931429Y-85162857D01*
X136931429Y-85020000D01*
X136860001Y-84877143D01*
X136788572Y-84805714D01*
X136645715Y-84734286D01*
X136360001Y-84662857D01*
X136217143Y-84591429D01*
X136145715Y-84520000D01*
X136074286Y-84377143D01*
X136074286Y-84234286D01*
X136145715Y-84091429D01*
X136217143Y-84020000D01*
X136360001Y-83948571D01*
X136717143Y-83948571D01*
X136931429Y-84020000D01*
X137431429Y-83948571D02*
X137788572Y-85448571D01*
X138074286Y-84377143D01*
X138360000Y-85448571D01*
X138717143Y-83948571D01*
X139288572Y-85448571D02*
X139288572Y-83948571D01*
X139645715Y-83948571D01*
X139860000Y-84020000D01*
X140002858Y-84162857D01*
X140074286Y-84305714D01*
X140145715Y-84591429D01*
X140145715Y-84805714D01*
X140074286Y-85091429D01*
X140002858Y-85234286D01*
X139860000Y-85377143D01*
X139645715Y-85448571D01*
X139288572Y-85448571D01*
X128277143Y-80320000D02*
X128348571Y-80105714D01*
X128348571Y-79748571D01*
X128277143Y-79605714D01*
X128205714Y-79534285D01*
X128062857Y-79462857D01*
X127920000Y-79462857D01*
X127777143Y-79534285D01*
X127705714Y-79605714D01*
X127634286Y-79748571D01*
X127562857Y-80034285D01*
X127491429Y-80177143D01*
X127420000Y-80248571D01*
X127277143Y-80320000D01*
X127134286Y-80320000D01*
X126991429Y-80248571D01*
X126920000Y-80177143D01*
X126848571Y-80034285D01*
X126848571Y-79677143D01*
X126920000Y-79462857D01*
X126848571Y-78962857D02*
X128348571Y-78605714D01*
X127277143Y-78320000D01*
X128348571Y-78034286D01*
X126848571Y-77677143D01*
X128348571Y-77105714D02*
X126848571Y-77105714D01*
X126848571Y-76748571D01*
X126920000Y-76534286D01*
X127062857Y-76391428D01*
X127205714Y-76320000D01*
X127491429Y-76248571D01*
X127705714Y-76248571D01*
X127991429Y-76320000D01*
X128134286Y-76391428D01*
X128277143Y-76534286D01*
X128348571Y-76748571D01*
X128348571Y-77105714D01*
X127777143Y-75605714D02*
X127777143Y-74462857D01*
X128348571Y-75034286D02*
X127205714Y-75034286D01*
X128277143Y-73820000D02*
X128348571Y-73605714D01*
X128348571Y-73248571D01*
X128277143Y-73105714D01*
X128205714Y-73034285D01*
X128062857Y-72962857D01*
X127920000Y-72962857D01*
X127777143Y-73034285D01*
X127705714Y-73105714D01*
X127634286Y-73248571D01*
X127562857Y-73534285D01*
X127491429Y-73677143D01*
X127420000Y-73748571D01*
X127277143Y-73820000D01*
X127134286Y-73820000D01*
X126991429Y-73748571D01*
X126920000Y-73677143D01*
X126848571Y-73534285D01*
X126848571Y-73177143D01*
X126920000Y-72962857D01*
X126848571Y-72462857D02*
X128348571Y-72105714D01*
X127277143Y-71820000D01*
X128348571Y-71534286D01*
X126848571Y-71177143D01*
X126848571Y-70320000D02*
X126848571Y-70034286D01*
X126920000Y-69891428D01*
X127062857Y-69748571D01*
X127348571Y-69677143D01*
X127848571Y-69677143D01*
X128134286Y-69748571D01*
X128277143Y-69891428D01*
X128348571Y-70034286D01*
X128348571Y-70320000D01*
X128277143Y-70462857D01*
X128134286Y-70605714D01*
X127848571Y-70677143D01*
X127348571Y-70677143D01*
X127062857Y-70605714D01*
X126920000Y-70462857D01*
X126848571Y-70320000D01*
X127777143Y-69034285D02*
X127777143Y-67891428D01*
X128348571Y-68462857D02*
X127205714Y-68462857D01*
X126848571Y-67177142D02*
X128062857Y-67177142D01*
X128205714Y-67105714D01*
X128277143Y-67034285D01*
X128348571Y-66891428D01*
X128348571Y-66605714D01*
X128277143Y-66462856D01*
X128205714Y-66391428D01*
X128062857Y-66319999D01*
X126848571Y-66319999D01*
X127920000Y-65677142D02*
X127920000Y-64962856D01*
X128348571Y-65819999D02*
X126848571Y-65319999D01*
X128348571Y-64819999D01*
X128348571Y-63462856D02*
X127634286Y-63962856D01*
X128348571Y-64319999D02*
X126848571Y-64319999D01*
X126848571Y-63748571D01*
X126920000Y-63605713D01*
X126991429Y-63534285D01*
X127134286Y-63462856D01*
X127348571Y-63462856D01*
X127491429Y-63534285D01*
X127562857Y-63605713D01*
X127634286Y-63748571D01*
X127634286Y-64319999D01*
X126848571Y-63034285D02*
X126848571Y-62177142D01*
X128348571Y-62605713D02*
X126848571Y-62605713D01*
D13*
X135576000Y-86198400D02*
X135576000Y-88858400D01*
X138176000Y-86198400D02*
X135576000Y-86198400D01*
X138176000Y-88858400D02*
X135576000Y-88858400D01*
X138176000Y-86198400D02*
X138176000Y-88858400D01*
X139446000Y-86198400D02*
X140776000Y-86198400D01*
X140776000Y-86198400D02*
X140776000Y-87528400D01*
X135322000Y-83727600D02*
X140522000Y-83727600D01*
X135322000Y-60807600D02*
X135322000Y-83727600D01*
X140522000Y-58207600D02*
X140522000Y-83727600D01*
X135322000Y-60807600D02*
X137922000Y-60807600D01*
X137922000Y-60807600D02*
X137922000Y-58207600D01*
X137922000Y-58207600D02*
X140522000Y-58207600D01*
X135322000Y-59537600D02*
X135322000Y-58207600D01*
X135322000Y-58207600D02*
X136652000Y-58207600D01*
X128514800Y-81898800D02*
X131174800Y-81898800D01*
X128514800Y-64058800D02*
X128514800Y-81898800D01*
X131174800Y-64058800D02*
X131174800Y-81898800D01*
X128514800Y-64058800D02*
X131174800Y-64058800D01*
X128514800Y-62788800D02*
X128514800Y-61458800D01*
X128514800Y-61458800D02*
X129844800Y-61458800D01*
D14*
X134082381Y-87959047D02*
X134082381Y-88435238D01*
X134558571Y-88482857D01*
X134510952Y-88435238D01*
X134463333Y-88340000D01*
X134463333Y-88101904D01*
X134510952Y-88006666D01*
X134558571Y-87959047D01*
X134653810Y-87911428D01*
X134891905Y-87911428D01*
X134987143Y-87959047D01*
X135034762Y-88006666D01*
X135082381Y-88101904D01*
X135082381Y-88340000D01*
X135034762Y-88435238D01*
X134987143Y-88482857D01*
X134415714Y-87578095D02*
X135082381Y-87340000D01*
X134415714Y-87101904D01*
X135082381Y-86197142D02*
X135082381Y-86768571D01*
X135082381Y-86482857D02*
X134082381Y-86482857D01*
X134225238Y-86578095D01*
X134320476Y-86673333D01*
X134368095Y-86768571D01*
X137183905Y-57659981D02*
X137183905Y-56659981D01*
X137564858Y-56659981D01*
X137660096Y-56707600D01*
X137707715Y-56755219D01*
X137755334Y-56850457D01*
X137755334Y-56993314D01*
X137707715Y-57088552D01*
X137660096Y-57136171D01*
X137564858Y-57183790D01*
X137183905Y-57183790D01*
X138136286Y-56755219D02*
X138183905Y-56707600D01*
X138279143Y-56659981D01*
X138517239Y-56659981D01*
X138612477Y-56707600D01*
X138660096Y-56755219D01*
X138707715Y-56850457D01*
X138707715Y-56945695D01*
X138660096Y-57088552D01*
X138088667Y-57659981D01*
X138707715Y-57659981D01*
X129106705Y-60911181D02*
X129106705Y-59911181D01*
X129487658Y-59911181D01*
X129582896Y-59958800D01*
X129630515Y-60006419D01*
X129678134Y-60101657D01*
X129678134Y-60244514D01*
X129630515Y-60339752D01*
X129582896Y-60387371D01*
X129487658Y-60434990D01*
X129106705Y-60434990D01*
X130535277Y-60244514D02*
X130535277Y-60911181D01*
X130297181Y-59863562D02*
X130059086Y-60577848D01*
X130678134Y-60577848D01*
M02*
