G04 #@! TF.FileFunction,Copper,L1,Top,Signal*
%FSLAX46Y46*%
G04 Gerber Fmt 4.6, Leading zero omitted, Abs format (unit mm)*
G04 Created by KiCad (PCBNEW 4.0.6) date 03/16/18 17:26:31*
%MOMM*%
%LPD*%
G01*
G04 APERTURE LIST*
%ADD10C,0.100000*%
%ADD11R,1.700000X1.700000*%
%ADD12O,1.700000X1.700000*%
%ADD13C,0.250000*%
%ADD14C,0.254000*%
G04 APERTURE END LIST*
D10*
D11*
X139446000Y-87528400D03*
D12*
X136906000Y-87528400D03*
D11*
X136652000Y-59537600D03*
D12*
X139192000Y-59537600D03*
X136652000Y-62077600D03*
X139192000Y-62077600D03*
X136652000Y-64617600D03*
X139192000Y-64617600D03*
X136652000Y-67157600D03*
X139192000Y-67157600D03*
X136652000Y-69697600D03*
X139192000Y-69697600D03*
X136652000Y-72237600D03*
X139192000Y-72237600D03*
X136652000Y-74777600D03*
X139192000Y-74777600D03*
X136652000Y-77317600D03*
X139192000Y-77317600D03*
X136652000Y-79857600D03*
X139192000Y-79857600D03*
X136652000Y-82397600D03*
X139192000Y-82397600D03*
D11*
X129844800Y-62788800D03*
D12*
X129844800Y-65328800D03*
X129844800Y-67868800D03*
X129844800Y-70408800D03*
X129844800Y-72948800D03*
X129844800Y-75488800D03*
X129844800Y-78028800D03*
X129844800Y-80568800D03*
D13*
X129844800Y-62788800D02*
X128270000Y-62788800D01*
X133146800Y-83312000D02*
X136906000Y-87071200D01*
X129235200Y-83312000D02*
X133146800Y-83312000D01*
X127508000Y-81584800D02*
X129235200Y-83312000D01*
X127508000Y-63550800D02*
X127508000Y-81584800D01*
X128270000Y-62788800D02*
X127508000Y-63550800D01*
X136906000Y-87071200D02*
X136906000Y-87528400D01*
X129844800Y-78028800D02*
X129489200Y-78028800D01*
X129489200Y-78028800D02*
X128219200Y-76758800D01*
X128219200Y-76758800D02*
X128219200Y-64719200D01*
X128219200Y-64719200D02*
X128828800Y-64109600D01*
X128828800Y-64109600D02*
X136144000Y-64109600D01*
X136144000Y-64109600D02*
X136652000Y-64617600D01*
X129844800Y-75488800D02*
X132994400Y-75488800D01*
X133705600Y-74777600D02*
X136652000Y-74777600D01*
X132994400Y-75488800D02*
X133705600Y-74777600D01*
D14*
G36*
X141290000Y-89290000D02*
X126710000Y-89290000D01*
X126710000Y-63550800D01*
X126748000Y-63550800D01*
X126748000Y-81584800D01*
X126805852Y-81875639D01*
X126970599Y-82122201D01*
X128697799Y-83849401D01*
X128944361Y-84014148D01*
X129235200Y-84072000D01*
X132831998Y-84072000D01*
X135596917Y-86836919D01*
X135534039Y-86931022D01*
X135421000Y-87499307D01*
X135421000Y-87557493D01*
X135534039Y-88125778D01*
X135855946Y-88607547D01*
X136337715Y-88929454D01*
X136906000Y-89042493D01*
X137474285Y-88929454D01*
X137956054Y-88607547D01*
X137983850Y-88565948D01*
X137992838Y-88613717D01*
X138131910Y-88829841D01*
X138344110Y-88974831D01*
X138596000Y-89025840D01*
X140296000Y-89025840D01*
X140531317Y-88981562D01*
X140747441Y-88842490D01*
X140892431Y-88630290D01*
X140943440Y-88378400D01*
X140943440Y-86678400D01*
X140899162Y-86443083D01*
X140760090Y-86226959D01*
X140547890Y-86081969D01*
X140296000Y-86030960D01*
X138596000Y-86030960D01*
X138360683Y-86075238D01*
X138144559Y-86214310D01*
X137999569Y-86426510D01*
X137985914Y-86493941D01*
X137956054Y-86449253D01*
X137474285Y-86127346D01*
X136928356Y-86018754D01*
X133684201Y-82774599D01*
X133437639Y-82609852D01*
X133146800Y-82552000D01*
X129550002Y-82552000D01*
X128268000Y-81269998D01*
X128268000Y-77882402D01*
X128344592Y-77958994D01*
X128330707Y-78028800D01*
X128443746Y-78597085D01*
X128765653Y-79078854D01*
X129094826Y-79298800D01*
X128765653Y-79518746D01*
X128443746Y-80000515D01*
X128330707Y-80568800D01*
X128443746Y-81137085D01*
X128765653Y-81618854D01*
X129247422Y-81940761D01*
X129815707Y-82053800D01*
X129873893Y-82053800D01*
X130442178Y-81940761D01*
X130923947Y-81618854D01*
X131245854Y-81137085D01*
X131358893Y-80568800D01*
X131245854Y-80000515D01*
X130923947Y-79518746D01*
X130594774Y-79298800D01*
X130923947Y-79078854D01*
X131245854Y-78597085D01*
X131358893Y-78028800D01*
X131245854Y-77460515D01*
X130923947Y-76978746D01*
X130594774Y-76758800D01*
X130923947Y-76538854D01*
X131117754Y-76248800D01*
X132994400Y-76248800D01*
X133285239Y-76190948D01*
X133531801Y-76026201D01*
X134020402Y-75537600D01*
X135379046Y-75537600D01*
X135572853Y-75827654D01*
X135902026Y-76047600D01*
X135572853Y-76267546D01*
X135250946Y-76749315D01*
X135137907Y-77317600D01*
X135250946Y-77885885D01*
X135572853Y-78367654D01*
X135902026Y-78587600D01*
X135572853Y-78807546D01*
X135250946Y-79289315D01*
X135137907Y-79857600D01*
X135250946Y-80425885D01*
X135572853Y-80907654D01*
X135902026Y-81127600D01*
X135572853Y-81347546D01*
X135250946Y-81829315D01*
X135137907Y-82397600D01*
X135250946Y-82965885D01*
X135572853Y-83447654D01*
X136054622Y-83769561D01*
X136622907Y-83882600D01*
X136681093Y-83882600D01*
X137249378Y-83769561D01*
X137731147Y-83447654D01*
X137920345Y-83164499D01*
X137920355Y-83164524D01*
X138310642Y-83592783D01*
X138835108Y-83839086D01*
X139065000Y-83718419D01*
X139065000Y-82524600D01*
X139319000Y-82524600D01*
X139319000Y-83718419D01*
X139548892Y-83839086D01*
X140073358Y-83592783D01*
X140463645Y-83164524D01*
X140633476Y-82754490D01*
X140512155Y-82524600D01*
X139319000Y-82524600D01*
X139065000Y-82524600D01*
X139045000Y-82524600D01*
X139045000Y-82270600D01*
X139065000Y-82270600D01*
X139065000Y-79984600D01*
X139319000Y-79984600D01*
X139319000Y-82270600D01*
X140512155Y-82270600D01*
X140633476Y-82040710D01*
X140463645Y-81630676D01*
X140073358Y-81202417D01*
X139914046Y-81127600D01*
X140073358Y-81052783D01*
X140463645Y-80624524D01*
X140633476Y-80214490D01*
X140512155Y-79984600D01*
X139319000Y-79984600D01*
X139065000Y-79984600D01*
X139045000Y-79984600D01*
X139045000Y-79730600D01*
X139065000Y-79730600D01*
X139065000Y-77444600D01*
X139319000Y-77444600D01*
X139319000Y-79730600D01*
X140512155Y-79730600D01*
X140633476Y-79500710D01*
X140463645Y-79090676D01*
X140073358Y-78662417D01*
X139914046Y-78587600D01*
X140073358Y-78512783D01*
X140463645Y-78084524D01*
X140633476Y-77674490D01*
X140512155Y-77444600D01*
X139319000Y-77444600D01*
X139065000Y-77444600D01*
X139045000Y-77444600D01*
X139045000Y-77190600D01*
X139065000Y-77190600D01*
X139065000Y-74904600D01*
X139319000Y-74904600D01*
X139319000Y-77190600D01*
X140512155Y-77190600D01*
X140633476Y-76960710D01*
X140463645Y-76550676D01*
X140073358Y-76122417D01*
X139914046Y-76047600D01*
X140073358Y-75972783D01*
X140463645Y-75544524D01*
X140633476Y-75134490D01*
X140512155Y-74904600D01*
X139319000Y-74904600D01*
X139065000Y-74904600D01*
X139045000Y-74904600D01*
X139045000Y-74650600D01*
X139065000Y-74650600D01*
X139065000Y-72364600D01*
X139319000Y-72364600D01*
X139319000Y-74650600D01*
X140512155Y-74650600D01*
X140633476Y-74420710D01*
X140463645Y-74010676D01*
X140073358Y-73582417D01*
X139914046Y-73507600D01*
X140073358Y-73432783D01*
X140463645Y-73004524D01*
X140633476Y-72594490D01*
X140512155Y-72364600D01*
X139319000Y-72364600D01*
X139065000Y-72364600D01*
X139045000Y-72364600D01*
X139045000Y-72110600D01*
X139065000Y-72110600D01*
X139065000Y-69824600D01*
X139319000Y-69824600D01*
X139319000Y-72110600D01*
X140512155Y-72110600D01*
X140633476Y-71880710D01*
X140463645Y-71470676D01*
X140073358Y-71042417D01*
X139914046Y-70967600D01*
X140073358Y-70892783D01*
X140463645Y-70464524D01*
X140633476Y-70054490D01*
X140512155Y-69824600D01*
X139319000Y-69824600D01*
X139065000Y-69824600D01*
X139045000Y-69824600D01*
X139045000Y-69570600D01*
X139065000Y-69570600D01*
X139065000Y-67284600D01*
X139319000Y-67284600D01*
X139319000Y-69570600D01*
X140512155Y-69570600D01*
X140633476Y-69340710D01*
X140463645Y-68930676D01*
X140073358Y-68502417D01*
X139914046Y-68427600D01*
X140073358Y-68352783D01*
X140463645Y-67924524D01*
X140633476Y-67514490D01*
X140512155Y-67284600D01*
X139319000Y-67284600D01*
X139065000Y-67284600D01*
X139045000Y-67284600D01*
X139045000Y-67030600D01*
X139065000Y-67030600D01*
X139065000Y-64744600D01*
X139319000Y-64744600D01*
X139319000Y-67030600D01*
X140512155Y-67030600D01*
X140633476Y-66800710D01*
X140463645Y-66390676D01*
X140073358Y-65962417D01*
X139914046Y-65887600D01*
X140073358Y-65812783D01*
X140463645Y-65384524D01*
X140633476Y-64974490D01*
X140512155Y-64744600D01*
X139319000Y-64744600D01*
X139065000Y-64744600D01*
X139045000Y-64744600D01*
X139045000Y-64490600D01*
X139065000Y-64490600D01*
X139065000Y-62204600D01*
X139319000Y-62204600D01*
X139319000Y-64490600D01*
X140512155Y-64490600D01*
X140633476Y-64260710D01*
X140463645Y-63850676D01*
X140073358Y-63422417D01*
X139914046Y-63347600D01*
X140073358Y-63272783D01*
X140463645Y-62844524D01*
X140633476Y-62434490D01*
X140512155Y-62204600D01*
X139319000Y-62204600D01*
X139065000Y-62204600D01*
X139045000Y-62204600D01*
X139045000Y-61950600D01*
X139065000Y-61950600D01*
X139065000Y-61930600D01*
X139319000Y-61930600D01*
X139319000Y-61950600D01*
X140512155Y-61950600D01*
X140633476Y-61720710D01*
X140463645Y-61310676D01*
X140073358Y-60882417D01*
X139930447Y-60815302D01*
X140271147Y-60587654D01*
X140593054Y-60105885D01*
X140706093Y-59537600D01*
X140593054Y-58969315D01*
X140271147Y-58487546D01*
X139789378Y-58165639D01*
X139221093Y-58052600D01*
X139162907Y-58052600D01*
X138594622Y-58165639D01*
X138112853Y-58487546D01*
X138112029Y-58488779D01*
X138105162Y-58452283D01*
X137966090Y-58236159D01*
X137753890Y-58091169D01*
X137502000Y-58040160D01*
X135802000Y-58040160D01*
X135566683Y-58084438D01*
X135350559Y-58223510D01*
X135205569Y-58435710D01*
X135154560Y-58687600D01*
X135154560Y-60387600D01*
X135198838Y-60622917D01*
X135337910Y-60839041D01*
X135550110Y-60984031D01*
X135617541Y-60997686D01*
X135572853Y-61027546D01*
X135250946Y-61509315D01*
X135137907Y-62077600D01*
X135250946Y-62645885D01*
X135572853Y-63127654D01*
X135902026Y-63347600D01*
X135899033Y-63349600D01*
X131342240Y-63349600D01*
X131342240Y-61938800D01*
X131297962Y-61703483D01*
X131158890Y-61487359D01*
X130946690Y-61342369D01*
X130694800Y-61291360D01*
X128994800Y-61291360D01*
X128759483Y-61335638D01*
X128543359Y-61474710D01*
X128398369Y-61686910D01*
X128347360Y-61938800D01*
X128347360Y-62028800D01*
X128270000Y-62028800D01*
X127979161Y-62086652D01*
X127732599Y-62251399D01*
X126970599Y-63013399D01*
X126805852Y-63259961D01*
X126748000Y-63550800D01*
X126710000Y-63550800D01*
X126710000Y-56710000D01*
X141290000Y-56710000D01*
X141290000Y-89290000D01*
X141290000Y-89290000D01*
G37*
X141290000Y-89290000D02*
X126710000Y-89290000D01*
X126710000Y-63550800D01*
X126748000Y-63550800D01*
X126748000Y-81584800D01*
X126805852Y-81875639D01*
X126970599Y-82122201D01*
X128697799Y-83849401D01*
X128944361Y-84014148D01*
X129235200Y-84072000D01*
X132831998Y-84072000D01*
X135596917Y-86836919D01*
X135534039Y-86931022D01*
X135421000Y-87499307D01*
X135421000Y-87557493D01*
X135534039Y-88125778D01*
X135855946Y-88607547D01*
X136337715Y-88929454D01*
X136906000Y-89042493D01*
X137474285Y-88929454D01*
X137956054Y-88607547D01*
X137983850Y-88565948D01*
X137992838Y-88613717D01*
X138131910Y-88829841D01*
X138344110Y-88974831D01*
X138596000Y-89025840D01*
X140296000Y-89025840D01*
X140531317Y-88981562D01*
X140747441Y-88842490D01*
X140892431Y-88630290D01*
X140943440Y-88378400D01*
X140943440Y-86678400D01*
X140899162Y-86443083D01*
X140760090Y-86226959D01*
X140547890Y-86081969D01*
X140296000Y-86030960D01*
X138596000Y-86030960D01*
X138360683Y-86075238D01*
X138144559Y-86214310D01*
X137999569Y-86426510D01*
X137985914Y-86493941D01*
X137956054Y-86449253D01*
X137474285Y-86127346D01*
X136928356Y-86018754D01*
X133684201Y-82774599D01*
X133437639Y-82609852D01*
X133146800Y-82552000D01*
X129550002Y-82552000D01*
X128268000Y-81269998D01*
X128268000Y-77882402D01*
X128344592Y-77958994D01*
X128330707Y-78028800D01*
X128443746Y-78597085D01*
X128765653Y-79078854D01*
X129094826Y-79298800D01*
X128765653Y-79518746D01*
X128443746Y-80000515D01*
X128330707Y-80568800D01*
X128443746Y-81137085D01*
X128765653Y-81618854D01*
X129247422Y-81940761D01*
X129815707Y-82053800D01*
X129873893Y-82053800D01*
X130442178Y-81940761D01*
X130923947Y-81618854D01*
X131245854Y-81137085D01*
X131358893Y-80568800D01*
X131245854Y-80000515D01*
X130923947Y-79518746D01*
X130594774Y-79298800D01*
X130923947Y-79078854D01*
X131245854Y-78597085D01*
X131358893Y-78028800D01*
X131245854Y-77460515D01*
X130923947Y-76978746D01*
X130594774Y-76758800D01*
X130923947Y-76538854D01*
X131117754Y-76248800D01*
X132994400Y-76248800D01*
X133285239Y-76190948D01*
X133531801Y-76026201D01*
X134020402Y-75537600D01*
X135379046Y-75537600D01*
X135572853Y-75827654D01*
X135902026Y-76047600D01*
X135572853Y-76267546D01*
X135250946Y-76749315D01*
X135137907Y-77317600D01*
X135250946Y-77885885D01*
X135572853Y-78367654D01*
X135902026Y-78587600D01*
X135572853Y-78807546D01*
X135250946Y-79289315D01*
X135137907Y-79857600D01*
X135250946Y-80425885D01*
X135572853Y-80907654D01*
X135902026Y-81127600D01*
X135572853Y-81347546D01*
X135250946Y-81829315D01*
X135137907Y-82397600D01*
X135250946Y-82965885D01*
X135572853Y-83447654D01*
X136054622Y-83769561D01*
X136622907Y-83882600D01*
X136681093Y-83882600D01*
X137249378Y-83769561D01*
X137731147Y-83447654D01*
X137920345Y-83164499D01*
X137920355Y-83164524D01*
X138310642Y-83592783D01*
X138835108Y-83839086D01*
X139065000Y-83718419D01*
X139065000Y-82524600D01*
X139319000Y-82524600D01*
X139319000Y-83718419D01*
X139548892Y-83839086D01*
X140073358Y-83592783D01*
X140463645Y-83164524D01*
X140633476Y-82754490D01*
X140512155Y-82524600D01*
X139319000Y-82524600D01*
X139065000Y-82524600D01*
X139045000Y-82524600D01*
X139045000Y-82270600D01*
X139065000Y-82270600D01*
X139065000Y-79984600D01*
X139319000Y-79984600D01*
X139319000Y-82270600D01*
X140512155Y-82270600D01*
X140633476Y-82040710D01*
X140463645Y-81630676D01*
X140073358Y-81202417D01*
X139914046Y-81127600D01*
X140073358Y-81052783D01*
X140463645Y-80624524D01*
X140633476Y-80214490D01*
X140512155Y-79984600D01*
X139319000Y-79984600D01*
X139065000Y-79984600D01*
X139045000Y-79984600D01*
X139045000Y-79730600D01*
X139065000Y-79730600D01*
X139065000Y-77444600D01*
X139319000Y-77444600D01*
X139319000Y-79730600D01*
X140512155Y-79730600D01*
X140633476Y-79500710D01*
X140463645Y-79090676D01*
X140073358Y-78662417D01*
X139914046Y-78587600D01*
X140073358Y-78512783D01*
X140463645Y-78084524D01*
X140633476Y-77674490D01*
X140512155Y-77444600D01*
X139319000Y-77444600D01*
X139065000Y-77444600D01*
X139045000Y-77444600D01*
X139045000Y-77190600D01*
X139065000Y-77190600D01*
X139065000Y-74904600D01*
X139319000Y-74904600D01*
X139319000Y-77190600D01*
X140512155Y-77190600D01*
X140633476Y-76960710D01*
X140463645Y-76550676D01*
X140073358Y-76122417D01*
X139914046Y-76047600D01*
X140073358Y-75972783D01*
X140463645Y-75544524D01*
X140633476Y-75134490D01*
X140512155Y-74904600D01*
X139319000Y-74904600D01*
X139065000Y-74904600D01*
X139045000Y-74904600D01*
X139045000Y-74650600D01*
X139065000Y-74650600D01*
X139065000Y-72364600D01*
X139319000Y-72364600D01*
X139319000Y-74650600D01*
X140512155Y-74650600D01*
X140633476Y-74420710D01*
X140463645Y-74010676D01*
X140073358Y-73582417D01*
X139914046Y-73507600D01*
X140073358Y-73432783D01*
X140463645Y-73004524D01*
X140633476Y-72594490D01*
X140512155Y-72364600D01*
X139319000Y-72364600D01*
X139065000Y-72364600D01*
X139045000Y-72364600D01*
X139045000Y-72110600D01*
X139065000Y-72110600D01*
X139065000Y-69824600D01*
X139319000Y-69824600D01*
X139319000Y-72110600D01*
X140512155Y-72110600D01*
X140633476Y-71880710D01*
X140463645Y-71470676D01*
X140073358Y-71042417D01*
X139914046Y-70967600D01*
X140073358Y-70892783D01*
X140463645Y-70464524D01*
X140633476Y-70054490D01*
X140512155Y-69824600D01*
X139319000Y-69824600D01*
X139065000Y-69824600D01*
X139045000Y-69824600D01*
X139045000Y-69570600D01*
X139065000Y-69570600D01*
X139065000Y-67284600D01*
X139319000Y-67284600D01*
X139319000Y-69570600D01*
X140512155Y-69570600D01*
X140633476Y-69340710D01*
X140463645Y-68930676D01*
X140073358Y-68502417D01*
X139914046Y-68427600D01*
X140073358Y-68352783D01*
X140463645Y-67924524D01*
X140633476Y-67514490D01*
X140512155Y-67284600D01*
X139319000Y-67284600D01*
X139065000Y-67284600D01*
X139045000Y-67284600D01*
X139045000Y-67030600D01*
X139065000Y-67030600D01*
X139065000Y-64744600D01*
X139319000Y-64744600D01*
X139319000Y-67030600D01*
X140512155Y-67030600D01*
X140633476Y-66800710D01*
X140463645Y-66390676D01*
X140073358Y-65962417D01*
X139914046Y-65887600D01*
X140073358Y-65812783D01*
X140463645Y-65384524D01*
X140633476Y-64974490D01*
X140512155Y-64744600D01*
X139319000Y-64744600D01*
X139065000Y-64744600D01*
X139045000Y-64744600D01*
X139045000Y-64490600D01*
X139065000Y-64490600D01*
X139065000Y-62204600D01*
X139319000Y-62204600D01*
X139319000Y-64490600D01*
X140512155Y-64490600D01*
X140633476Y-64260710D01*
X140463645Y-63850676D01*
X140073358Y-63422417D01*
X139914046Y-63347600D01*
X140073358Y-63272783D01*
X140463645Y-62844524D01*
X140633476Y-62434490D01*
X140512155Y-62204600D01*
X139319000Y-62204600D01*
X139065000Y-62204600D01*
X139045000Y-62204600D01*
X139045000Y-61950600D01*
X139065000Y-61950600D01*
X139065000Y-61930600D01*
X139319000Y-61930600D01*
X139319000Y-61950600D01*
X140512155Y-61950600D01*
X140633476Y-61720710D01*
X140463645Y-61310676D01*
X140073358Y-60882417D01*
X139930447Y-60815302D01*
X140271147Y-60587654D01*
X140593054Y-60105885D01*
X140706093Y-59537600D01*
X140593054Y-58969315D01*
X140271147Y-58487546D01*
X139789378Y-58165639D01*
X139221093Y-58052600D01*
X139162907Y-58052600D01*
X138594622Y-58165639D01*
X138112853Y-58487546D01*
X138112029Y-58488779D01*
X138105162Y-58452283D01*
X137966090Y-58236159D01*
X137753890Y-58091169D01*
X137502000Y-58040160D01*
X135802000Y-58040160D01*
X135566683Y-58084438D01*
X135350559Y-58223510D01*
X135205569Y-58435710D01*
X135154560Y-58687600D01*
X135154560Y-60387600D01*
X135198838Y-60622917D01*
X135337910Y-60839041D01*
X135550110Y-60984031D01*
X135617541Y-60997686D01*
X135572853Y-61027546D01*
X135250946Y-61509315D01*
X135137907Y-62077600D01*
X135250946Y-62645885D01*
X135572853Y-63127654D01*
X135902026Y-63347600D01*
X135899033Y-63349600D01*
X131342240Y-63349600D01*
X131342240Y-61938800D01*
X131297962Y-61703483D01*
X131158890Y-61487359D01*
X130946690Y-61342369D01*
X130694800Y-61291360D01*
X128994800Y-61291360D01*
X128759483Y-61335638D01*
X128543359Y-61474710D01*
X128398369Y-61686910D01*
X128347360Y-61938800D01*
X128347360Y-62028800D01*
X128270000Y-62028800D01*
X127979161Y-62086652D01*
X127732599Y-62251399D01*
X126970599Y-63013399D01*
X126805852Y-63259961D01*
X126748000Y-63550800D01*
X126710000Y-63550800D01*
X126710000Y-56710000D01*
X141290000Y-56710000D01*
X141290000Y-89290000D01*
G36*
X135250946Y-65185885D02*
X135572853Y-65667654D01*
X135902026Y-65887600D01*
X135572853Y-66107546D01*
X135250946Y-66589315D01*
X135137907Y-67157600D01*
X135250946Y-67725885D01*
X135572853Y-68207654D01*
X135902026Y-68427600D01*
X135572853Y-68647546D01*
X135250946Y-69129315D01*
X135137907Y-69697600D01*
X135250946Y-70265885D01*
X135572853Y-70747654D01*
X135902026Y-70967600D01*
X135572853Y-71187546D01*
X135250946Y-71669315D01*
X135137907Y-72237600D01*
X135250946Y-72805885D01*
X135572853Y-73287654D01*
X135902026Y-73507600D01*
X135572853Y-73727546D01*
X135379046Y-74017600D01*
X133705600Y-74017600D01*
X133414761Y-74075452D01*
X133168199Y-74240199D01*
X132679598Y-74728800D01*
X131117754Y-74728800D01*
X130923947Y-74438746D01*
X130583247Y-74211098D01*
X130726158Y-74143983D01*
X131116445Y-73715724D01*
X131286276Y-73305690D01*
X131164955Y-73075800D01*
X129971800Y-73075800D01*
X129971800Y-73095800D01*
X129717800Y-73095800D01*
X129717800Y-73075800D01*
X129697800Y-73075800D01*
X129697800Y-72821800D01*
X129717800Y-72821800D01*
X129717800Y-72801800D01*
X129971800Y-72801800D01*
X129971800Y-72821800D01*
X131164955Y-72821800D01*
X131286276Y-72591910D01*
X131116445Y-72181876D01*
X130726158Y-71753617D01*
X130583247Y-71686502D01*
X130923947Y-71458854D01*
X131245854Y-70977085D01*
X131358893Y-70408800D01*
X131245854Y-69840515D01*
X130923947Y-69358746D01*
X130594774Y-69138800D01*
X130923947Y-68918854D01*
X131245854Y-68437085D01*
X131358893Y-67868800D01*
X131245854Y-67300515D01*
X130923947Y-66818746D01*
X130594774Y-66598800D01*
X130923947Y-66378854D01*
X131245854Y-65897085D01*
X131358893Y-65328800D01*
X131267552Y-64869600D01*
X135188033Y-64869600D01*
X135250946Y-65185885D01*
X135250946Y-65185885D01*
G37*
X135250946Y-65185885D02*
X135572853Y-65667654D01*
X135902026Y-65887600D01*
X135572853Y-66107546D01*
X135250946Y-66589315D01*
X135137907Y-67157600D01*
X135250946Y-67725885D01*
X135572853Y-68207654D01*
X135902026Y-68427600D01*
X135572853Y-68647546D01*
X135250946Y-69129315D01*
X135137907Y-69697600D01*
X135250946Y-70265885D01*
X135572853Y-70747654D01*
X135902026Y-70967600D01*
X135572853Y-71187546D01*
X135250946Y-71669315D01*
X135137907Y-72237600D01*
X135250946Y-72805885D01*
X135572853Y-73287654D01*
X135902026Y-73507600D01*
X135572853Y-73727546D01*
X135379046Y-74017600D01*
X133705600Y-74017600D01*
X133414761Y-74075452D01*
X133168199Y-74240199D01*
X132679598Y-74728800D01*
X131117754Y-74728800D01*
X130923947Y-74438746D01*
X130583247Y-74211098D01*
X130726158Y-74143983D01*
X131116445Y-73715724D01*
X131286276Y-73305690D01*
X131164955Y-73075800D01*
X129971800Y-73075800D01*
X129971800Y-73095800D01*
X129717800Y-73095800D01*
X129717800Y-73075800D01*
X129697800Y-73075800D01*
X129697800Y-72821800D01*
X129717800Y-72821800D01*
X129717800Y-72801800D01*
X129971800Y-72801800D01*
X129971800Y-72821800D01*
X131164955Y-72821800D01*
X131286276Y-72591910D01*
X131116445Y-72181876D01*
X130726158Y-71753617D01*
X130583247Y-71686502D01*
X130923947Y-71458854D01*
X131245854Y-70977085D01*
X131358893Y-70408800D01*
X131245854Y-69840515D01*
X130923947Y-69358746D01*
X130594774Y-69138800D01*
X130923947Y-68918854D01*
X131245854Y-68437085D01*
X131358893Y-67868800D01*
X131245854Y-67300515D01*
X130923947Y-66818746D01*
X130594774Y-66598800D01*
X130923947Y-66378854D01*
X131245854Y-65897085D01*
X131358893Y-65328800D01*
X131267552Y-64869600D01*
X135188033Y-64869600D01*
X135250946Y-65185885D01*
M02*
