M48
INCH,TZ
T1C0.040
%
G90
G05
T1
X42240Y-27780
X42240Y-28780
X42320Y-25700
X43240Y-27780
X43240Y-28780
X43320Y-25700
X44240Y-27780
X44240Y-28780
X44320Y-25700
X45240Y-27780
X45240Y-28780
X45320Y-25700
X46240Y-27780
X46240Y-28780
X46320Y-25700
X47240Y-27780
X47240Y-28780
X47320Y-25700
X48240Y-27780
X48240Y-28780
X48320Y-25700
T0
M30
