G04 #@! TF.FileFunction,Copper,L1,Top,Signal*
%FSLAX46Y46*%
G04 Gerber Fmt 4.6, Leading zero omitted, Abs format (unit mm)*
G04 Created by KiCad (PCBNEW 4.0.6) date 03/19/18 13:01:29*
%MOMM*%
%LPD*%
G01*
G04 APERTURE LIST*
%ADD10C,0.100000*%
%ADD11R,1.727200X1.727200*%
%ADD12O,1.727200X1.727200*%
%ADD13R,1.727200X2.032000*%
%ADD14O,1.727200X2.032000*%
%ADD15R,2.000000X1.700000*%
%ADD16C,0.250000*%
%ADD17C,0.254000*%
G04 APERTURE END LIST*
D10*
D11*
X107289600Y-73101200D03*
D12*
X107289600Y-70561200D03*
X109829600Y-73101200D03*
X109829600Y-70561200D03*
X112369600Y-73101200D03*
X112369600Y-70561200D03*
X114909600Y-73101200D03*
X114909600Y-70561200D03*
X117449600Y-73101200D03*
X117449600Y-70561200D03*
X119989600Y-73101200D03*
X119989600Y-70561200D03*
X122529600Y-73101200D03*
X122529600Y-70561200D03*
D13*
X107492800Y-65278000D03*
D14*
X110032800Y-65278000D03*
X112572800Y-65278000D03*
X115112800Y-65278000D03*
X117652800Y-65278000D03*
X120192800Y-65278000D03*
X122732800Y-65278000D03*
D15*
X115588800Y-76860400D03*
X111588800Y-76860400D03*
X123158000Y-76758800D03*
X119158000Y-76758800D03*
D16*
X107289600Y-73101200D02*
X107289600Y-72847200D01*
X107289600Y-72847200D02*
X108559600Y-71577200D01*
X108559600Y-71577200D02*
X108559600Y-69342000D01*
X108559600Y-69342000D02*
X110185200Y-67716400D01*
X110185200Y-67716400D02*
X112014000Y-67716400D01*
X112014000Y-67716400D02*
X112572800Y-67157600D01*
X112572800Y-67157600D02*
X112572800Y-65278000D01*
X107289600Y-70561200D02*
X107289600Y-69494400D01*
X110032800Y-66751200D02*
X110032800Y-65278000D01*
X107289600Y-69494400D02*
X110032800Y-66751200D01*
X109829600Y-73101200D02*
X109829600Y-72898000D01*
X109829600Y-72898000D02*
X111099600Y-71628000D01*
X111099600Y-71628000D02*
X111099600Y-69596000D01*
X111099600Y-69596000D02*
X112064800Y-68630800D01*
X112064800Y-68630800D02*
X114503200Y-68630800D01*
X114503200Y-68630800D02*
X115112800Y-68021200D01*
X115112800Y-68021200D02*
X115112800Y-65278000D01*
X107492800Y-65278000D02*
X107492800Y-66141600D01*
X107492800Y-66141600D02*
X105359200Y-68275200D01*
X105359200Y-68275200D02*
X105359200Y-74117200D01*
X105359200Y-74117200D02*
X108102400Y-76860400D01*
X108102400Y-76860400D02*
X111588800Y-76860400D01*
X111588800Y-76860400D02*
X111588800Y-73882000D01*
X111588800Y-73882000D02*
X112369600Y-73101200D01*
X119158000Y-76758800D02*
X119158000Y-77793600D01*
X114078000Y-78536800D02*
X111588800Y-76860400D01*
X117398800Y-78536800D02*
X114078000Y-78536800D01*
X119158000Y-77793600D02*
X117398800Y-78536800D01*
X114909600Y-73101200D02*
X116179600Y-71831200D01*
X116179600Y-66751200D02*
X117652800Y-65278000D01*
X116179600Y-71831200D02*
X116179600Y-66751200D01*
X117449600Y-73101200D02*
X117602000Y-73101200D01*
X117602000Y-73101200D02*
X118770400Y-71932800D01*
X118770400Y-71932800D02*
X118770400Y-66700400D01*
X118770400Y-66700400D02*
X120192800Y-65278000D01*
X122529600Y-73101200D02*
X122123200Y-73101200D01*
X122123200Y-73101200D02*
X120142000Y-75082400D01*
X120142000Y-75082400D02*
X117366800Y-75082400D01*
X117366800Y-75082400D02*
X115588800Y-76860400D01*
X122529600Y-70561200D02*
X124663200Y-70561200D01*
X124917200Y-74999600D02*
X123158000Y-76758800D01*
X124917200Y-70815200D02*
X124917200Y-74999600D01*
X124663200Y-70561200D02*
X124917200Y-70815200D01*
D17*
G36*
X109956600Y-70434200D02*
X109976600Y-70434200D01*
X109976600Y-70688200D01*
X109956600Y-70688200D01*
X109956600Y-70708200D01*
X109702600Y-70708200D01*
X109702600Y-70688200D01*
X109682600Y-70688200D01*
X109682600Y-70434200D01*
X109702600Y-70434200D01*
X109702600Y-70414200D01*
X109956600Y-70414200D01*
X109956600Y-70434200D01*
X109956600Y-70434200D01*
G37*
X109956600Y-70434200D02*
X109976600Y-70434200D01*
X109976600Y-70688200D01*
X109956600Y-70688200D01*
X109956600Y-70708200D01*
X109702600Y-70708200D01*
X109702600Y-70688200D01*
X109682600Y-70688200D01*
X109682600Y-70434200D01*
X109702600Y-70434200D01*
X109702600Y-70414200D01*
X109956600Y-70414200D01*
X109956600Y-70434200D01*
G36*
X115036600Y-70434200D02*
X115056600Y-70434200D01*
X115056600Y-70688200D01*
X115036600Y-70688200D01*
X115036600Y-70708200D01*
X114782600Y-70708200D01*
X114782600Y-70688200D01*
X114762600Y-70688200D01*
X114762600Y-70434200D01*
X114782600Y-70434200D01*
X114782600Y-70414200D01*
X115036600Y-70414200D01*
X115036600Y-70434200D01*
X115036600Y-70434200D01*
G37*
X115036600Y-70434200D02*
X115056600Y-70434200D01*
X115056600Y-70688200D01*
X115036600Y-70688200D01*
X115036600Y-70708200D01*
X114782600Y-70708200D01*
X114782600Y-70688200D01*
X114762600Y-70688200D01*
X114762600Y-70434200D01*
X114782600Y-70434200D01*
X114782600Y-70414200D01*
X115036600Y-70414200D01*
X115036600Y-70434200D01*
G36*
X117652800Y-66961345D02*
X118010400Y-66890214D01*
X118010400Y-69189815D01*
X117808626Y-69106242D01*
X117576600Y-69227383D01*
X117576600Y-70434200D01*
X117596600Y-70434200D01*
X117596600Y-70688200D01*
X117576600Y-70688200D01*
X117576600Y-70708200D01*
X117322600Y-70708200D01*
X117322600Y-70688200D01*
X117302600Y-70688200D01*
X117302600Y-70434200D01*
X117322600Y-70434200D01*
X117322600Y-69227383D01*
X117090574Y-69106242D01*
X116939600Y-69168774D01*
X116939600Y-67066002D01*
X117145221Y-66860381D01*
X117652800Y-66961345D01*
X117652800Y-66961345D01*
G37*
X117652800Y-66961345D02*
X118010400Y-66890214D01*
X118010400Y-69189815D01*
X117808626Y-69106242D01*
X117576600Y-69227383D01*
X117576600Y-70434200D01*
X117596600Y-70434200D01*
X117596600Y-70688200D01*
X117576600Y-70688200D01*
X117576600Y-70708200D01*
X117322600Y-70708200D01*
X117322600Y-70688200D01*
X117302600Y-70688200D01*
X117302600Y-70434200D01*
X117322600Y-70434200D01*
X117322600Y-69227383D01*
X117090574Y-69106242D01*
X116939600Y-69168774D01*
X116939600Y-67066002D01*
X117145221Y-66860381D01*
X117652800Y-66961345D01*
G36*
X125290000Y-70113198D02*
X125200601Y-70023799D01*
X124954039Y-69859052D01*
X124663200Y-69801200D01*
X123809120Y-69801200D01*
X123589270Y-69472171D01*
X123103089Y-69147315D01*
X122529600Y-69033241D01*
X121956111Y-69147315D01*
X121469930Y-69472171D01*
X121253936Y-69795428D01*
X121196421Y-69672710D01*
X120764547Y-69278512D01*
X120348626Y-69106242D01*
X120116600Y-69227383D01*
X120116600Y-70434200D01*
X120136600Y-70434200D01*
X120136600Y-70688200D01*
X120116600Y-70688200D01*
X120116600Y-70708200D01*
X119862600Y-70708200D01*
X119862600Y-70688200D01*
X119842600Y-70688200D01*
X119842600Y-70434200D01*
X119862600Y-70434200D01*
X119862600Y-69227383D01*
X119630574Y-69106242D01*
X119530400Y-69147733D01*
X119530400Y-67015202D01*
X119685221Y-66860381D01*
X120192800Y-66961345D01*
X120766289Y-66847271D01*
X121252470Y-66522415D01*
X121459261Y-66212931D01*
X121830764Y-66628732D01*
X122358009Y-66882709D01*
X122373774Y-66885358D01*
X122605800Y-66764217D01*
X122605800Y-65405000D01*
X122859800Y-65405000D01*
X122859800Y-66764217D01*
X123091826Y-66885358D01*
X123107591Y-66882709D01*
X123634836Y-66628732D01*
X124024754Y-66192320D01*
X124217984Y-65639913D01*
X124073724Y-65405000D01*
X122859800Y-65405000D01*
X122605800Y-65405000D01*
X122585800Y-65405000D01*
X122585800Y-65151000D01*
X122605800Y-65151000D01*
X122605800Y-65131000D01*
X122859800Y-65131000D01*
X122859800Y-65151000D01*
X124073724Y-65151000D01*
X124217984Y-64916087D01*
X124024754Y-64363680D01*
X123634836Y-63927268D01*
X123183797Y-63710000D01*
X125290000Y-63710000D01*
X125290000Y-70113198D01*
X125290000Y-70113198D01*
G37*
X125290000Y-70113198D02*
X125200601Y-70023799D01*
X124954039Y-69859052D01*
X124663200Y-69801200D01*
X123809120Y-69801200D01*
X123589270Y-69472171D01*
X123103089Y-69147315D01*
X122529600Y-69033241D01*
X121956111Y-69147315D01*
X121469930Y-69472171D01*
X121253936Y-69795428D01*
X121196421Y-69672710D01*
X120764547Y-69278512D01*
X120348626Y-69106242D01*
X120116600Y-69227383D01*
X120116600Y-70434200D01*
X120136600Y-70434200D01*
X120136600Y-70688200D01*
X120116600Y-70688200D01*
X120116600Y-70708200D01*
X119862600Y-70708200D01*
X119862600Y-70688200D01*
X119842600Y-70688200D01*
X119842600Y-70434200D01*
X119862600Y-70434200D01*
X119862600Y-69227383D01*
X119630574Y-69106242D01*
X119530400Y-69147733D01*
X119530400Y-67015202D01*
X119685221Y-66860381D01*
X120192800Y-66961345D01*
X120766289Y-66847271D01*
X121252470Y-66522415D01*
X121459261Y-66212931D01*
X121830764Y-66628732D01*
X122358009Y-66882709D01*
X122373774Y-66885358D01*
X122605800Y-66764217D01*
X122605800Y-65405000D01*
X122859800Y-65405000D01*
X122859800Y-66764217D01*
X123091826Y-66885358D01*
X123107591Y-66882709D01*
X123634836Y-66628732D01*
X124024754Y-66192320D01*
X124217984Y-65639913D01*
X124073724Y-65405000D01*
X122859800Y-65405000D01*
X122605800Y-65405000D01*
X122585800Y-65405000D01*
X122585800Y-65151000D01*
X122605800Y-65151000D01*
X122605800Y-65131000D01*
X122859800Y-65131000D01*
X122859800Y-65151000D01*
X124073724Y-65151000D01*
X124217984Y-64916087D01*
X124024754Y-64363680D01*
X123634836Y-63927268D01*
X123183797Y-63710000D01*
X125290000Y-63710000D01*
X125290000Y-70113198D01*
M02*
