G04 #@! TF.FileFunction,Legend,Top*
%FSLAX46Y46*%
G04 Gerber Fmt 4.6, Leading zero omitted, Abs format (unit mm)*
G04 Created by KiCad (PCBNEW 4.0.6) date 03/19/18 13:01:29*
%MOMM*%
%LPD*%
G01*
G04 APERTURE LIST*
%ADD10C,0.100000*%
%ADD11C,0.150000*%
G04 APERTURE END LIST*
D10*
D11*
X123799600Y-69291200D02*
X106019600Y-69291200D01*
X108559600Y-74371200D02*
X123799600Y-74371200D01*
X123799600Y-69291200D02*
X123799600Y-74371200D01*
X106019600Y-69291200D02*
X106019600Y-71831200D01*
X105739600Y-73101200D02*
X105739600Y-74651200D01*
X106019600Y-71831200D02*
X108559600Y-71831200D01*
X108559600Y-71831200D02*
X108559600Y-74371200D01*
X105739600Y-74651200D02*
X107289600Y-74651200D01*
X108762800Y-64008000D02*
X124002800Y-64008000D01*
X124002800Y-64008000D02*
X124002800Y-66548000D01*
X124002800Y-66548000D02*
X108762800Y-66548000D01*
X105942800Y-63728000D02*
X107492800Y-63728000D01*
X108762800Y-64008000D02*
X108762800Y-66548000D01*
X107492800Y-66828000D02*
X105942800Y-66828000D01*
X105942800Y-66828000D02*
X105942800Y-63728000D01*
X112588800Y-75785400D02*
X114588800Y-75785400D01*
X114588800Y-77935400D02*
X112588800Y-77935400D01*
X120158000Y-75683800D02*
X122158000Y-75683800D01*
X122158000Y-77833800D02*
X120158000Y-77833800D01*
D10*
X107289600Y-71374800D02*
X107289600Y-71374800D01*
X107289600Y-69747600D02*
X107289600Y-69747600D01*
X107289600Y-71374800D02*
G75*
G03X107289600Y-69747600I0J813600D01*
G01*
X107289600Y-69747600D02*
G75*
G03X107289600Y-71374800I0J-813600D01*
G01*
X109829600Y-73914800D02*
X109829600Y-73914800D01*
X109829600Y-72287600D02*
X109829600Y-72287600D01*
X109829600Y-73914800D02*
G75*
G03X109829600Y-72287600I0J813600D01*
G01*
X109829600Y-72287600D02*
G75*
G03X109829600Y-73914800I0J-813600D01*
G01*
X109829600Y-71374800D02*
X109829600Y-71374800D01*
X109829600Y-69747600D02*
X109829600Y-69747600D01*
X109829600Y-71374800D02*
G75*
G03X109829600Y-69747600I0J813600D01*
G01*
X109829600Y-69747600D02*
G75*
G03X109829600Y-71374800I0J-813600D01*
G01*
X112369600Y-73914800D02*
X112369600Y-73914800D01*
X112369600Y-72287600D02*
X112369600Y-72287600D01*
X112369600Y-73914800D02*
G75*
G03X112369600Y-72287600I0J813600D01*
G01*
X112369600Y-72287600D02*
G75*
G03X112369600Y-73914800I0J-813600D01*
G01*
X112369600Y-71374800D02*
X112369600Y-71374800D01*
X112369600Y-69747600D02*
X112369600Y-69747600D01*
X112369600Y-71374800D02*
G75*
G03X112369600Y-69747600I0J813600D01*
G01*
X112369600Y-69747600D02*
G75*
G03X112369600Y-71374800I0J-813600D01*
G01*
X114909600Y-73914800D02*
X114909600Y-73914800D01*
X114909600Y-72287600D02*
X114909600Y-72287600D01*
X114909600Y-73914800D02*
G75*
G03X114909600Y-72287600I0J813600D01*
G01*
X114909600Y-72287600D02*
G75*
G03X114909600Y-73914800I0J-813600D01*
G01*
X114909600Y-71374800D02*
X114909600Y-71374800D01*
X114909600Y-69747600D02*
X114909600Y-69747600D01*
X114909600Y-71374800D02*
G75*
G03X114909600Y-69747600I0J813600D01*
G01*
X114909600Y-69747600D02*
G75*
G03X114909600Y-71374800I0J-813600D01*
G01*
X117449600Y-73914800D02*
X117449600Y-73914800D01*
X117449600Y-72287600D02*
X117449600Y-72287600D01*
X117449600Y-73914800D02*
G75*
G03X117449600Y-72287600I0J813600D01*
G01*
X117449600Y-72287600D02*
G75*
G03X117449600Y-73914800I0J-813600D01*
G01*
X117449600Y-71374800D02*
X117449600Y-71374800D01*
X117449600Y-69747600D02*
X117449600Y-69747600D01*
X117449600Y-71374800D02*
G75*
G03X117449600Y-69747600I0J813600D01*
G01*
X117449600Y-69747600D02*
G75*
G03X117449600Y-71374800I0J-813600D01*
G01*
X119989600Y-73914800D02*
X119989600Y-73914800D01*
X119989600Y-72287600D02*
X119989600Y-72287600D01*
X119989600Y-73914800D02*
G75*
G03X119989600Y-72287600I0J813600D01*
G01*
X119989600Y-72287600D02*
G75*
G03X119989600Y-73914800I0J-813600D01*
G01*
X119989600Y-71374800D02*
X119989600Y-71374800D01*
X119989600Y-69747600D02*
X119989600Y-69747600D01*
X119989600Y-71374800D02*
G75*
G03X119989600Y-69747600I0J813600D01*
G01*
X119989600Y-69747600D02*
G75*
G03X119989600Y-71374800I0J-813600D01*
G01*
X122529600Y-73914800D02*
X122529600Y-73914800D01*
X122529600Y-72287600D02*
X122529600Y-72287600D01*
X122529600Y-73914800D02*
G75*
G03X122529600Y-72287600I0J813600D01*
G01*
X122529600Y-72287600D02*
G75*
G03X122529600Y-73914800I0J-813600D01*
G01*
X122529600Y-71374800D02*
X122529600Y-71374800D01*
X122529600Y-69747600D02*
X122529600Y-69747600D01*
X122529600Y-71374800D02*
G75*
G03X122529600Y-69747600I0J813600D01*
G01*
X122529600Y-69747600D02*
G75*
G03X122529600Y-71374800I0J-813600D01*
G01*
X110846400Y-65430400D02*
X110846400Y-65125600D01*
X109219200Y-65430400D02*
X109219200Y-65125600D01*
X110846400Y-65125600D02*
G75*
G03X109219200Y-65125600I-813600J0D01*
G01*
X109219200Y-65430400D02*
G75*
G03X110846400Y-65430400I813600J0D01*
G01*
X113386400Y-65430400D02*
X113386400Y-65125600D01*
X111759200Y-65430400D02*
X111759200Y-65125600D01*
X113386400Y-65125600D02*
G75*
G03X111759200Y-65125600I-813600J0D01*
G01*
X111759200Y-65430400D02*
G75*
G03X113386400Y-65430400I813600J0D01*
G01*
X115926400Y-65430400D02*
X115926400Y-65125600D01*
X114299200Y-65430400D02*
X114299200Y-65125600D01*
X115926400Y-65125600D02*
G75*
G03X114299200Y-65125600I-813600J0D01*
G01*
X114299200Y-65430400D02*
G75*
G03X115926400Y-65430400I813600J0D01*
G01*
X118466400Y-65430400D02*
X118466400Y-65125600D01*
X116839200Y-65430400D02*
X116839200Y-65125600D01*
X118466400Y-65125600D02*
G75*
G03X116839200Y-65125600I-813600J0D01*
G01*
X116839200Y-65430400D02*
G75*
G03X118466400Y-65430400I813600J0D01*
G01*
X121006400Y-65430400D02*
X121006400Y-65125600D01*
X119379200Y-65430400D02*
X119379200Y-65125600D01*
X121006400Y-65125600D02*
G75*
G03X119379200Y-65125600I-813600J0D01*
G01*
X119379200Y-65430400D02*
G75*
G03X121006400Y-65430400I813600J0D01*
G01*
X123546400Y-65430400D02*
X123546400Y-65125600D01*
X121919200Y-65430400D02*
X121919200Y-65125600D01*
X123546400Y-65125600D02*
G75*
G03X121919200Y-65125600I-813600J0D01*
G01*
X121919200Y-65430400D02*
G75*
G03X123546400Y-65430400I813600J0D01*
G01*
D11*
X105452381Y-72738095D02*
X104452381Y-72738095D01*
X104452381Y-72357142D01*
X104500000Y-72261904D01*
X104547619Y-72214285D01*
X104642857Y-72166666D01*
X104785714Y-72166666D01*
X104880952Y-72214285D01*
X104928571Y-72261904D01*
X104976190Y-72357142D01*
X104976190Y-72738095D01*
X105452381Y-71214285D02*
X105452381Y-71785714D01*
X105452381Y-71500000D02*
X104452381Y-71500000D01*
X104595238Y-71595238D01*
X104690476Y-71690476D01*
X104738095Y-71785714D01*
X105452381Y-65738095D02*
X104452381Y-65738095D01*
X104452381Y-65357142D01*
X104500000Y-65261904D01*
X104547619Y-65214285D01*
X104642857Y-65166666D01*
X104785714Y-65166666D01*
X104880952Y-65214285D01*
X104928571Y-65261904D01*
X104976190Y-65357142D01*
X104976190Y-65738095D01*
X104452381Y-64833333D02*
X104452381Y-64214285D01*
X104833333Y-64547619D01*
X104833333Y-64404761D01*
X104880952Y-64309523D01*
X104928571Y-64261904D01*
X105023810Y-64214285D01*
X105261905Y-64214285D01*
X105357143Y-64261904D01*
X105404762Y-64309523D01*
X105452381Y-64404761D01*
X105452381Y-64690476D01*
X105404762Y-64785714D01*
X105357143Y-64833333D01*
X108833334Y-78452381D02*
X108500000Y-77976190D01*
X108261905Y-78452381D02*
X108261905Y-77452381D01*
X108642858Y-77452381D01*
X108738096Y-77500000D01*
X108785715Y-77547619D01*
X108833334Y-77642857D01*
X108833334Y-77785714D01*
X108785715Y-77880952D01*
X108738096Y-77928571D01*
X108642858Y-77976190D01*
X108261905Y-77976190D01*
X109785715Y-78452381D02*
X109214286Y-78452381D01*
X109500000Y-78452381D02*
X109500000Y-77452381D01*
X109404762Y-77595238D01*
X109309524Y-77690476D01*
X109214286Y-77738095D01*
X124833334Y-78452381D02*
X124500000Y-77976190D01*
X124261905Y-78452381D02*
X124261905Y-77452381D01*
X124642858Y-77452381D01*
X124738096Y-77500000D01*
X124785715Y-77547619D01*
X124833334Y-77642857D01*
X124833334Y-77785714D01*
X124785715Y-77880952D01*
X124738096Y-77928571D01*
X124642858Y-77976190D01*
X124261905Y-77976190D01*
X125214286Y-77547619D02*
X125261905Y-77500000D01*
X125357143Y-77452381D01*
X125595239Y-77452381D01*
X125690477Y-77500000D01*
X125738096Y-77547619D01*
X125785715Y-77642857D01*
X125785715Y-77738095D01*
X125738096Y-77880952D01*
X125166667Y-78452381D01*
X125785715Y-78452381D01*
M02*
