G04 #@! TF.FileFunction,Soldermask,Bot*
%FSLAX46Y46*%
G04 Gerber Fmt 4.6, Leading zero omitted, Abs format (unit mm)*
G04 Created by KiCad (PCBNEW 4.0.6) date 02/20/18 13:27:19*
%MOMM*%
%LPD*%
G01*
G04 APERTURE LIST*
%ADD10C,0.100000*%
%ADD11R,2.127200X2.127200*%
%ADD12O,2.127200X2.127200*%
%ADD13R,2.432000X2.127200*%
%ADD14O,2.432000X2.127200*%
%ADD15R,2.432000X2.432000*%
%ADD16O,2.432000X2.432000*%
G04 APERTURE END LIST*
D10*
D11*
X108730000Y-69220000D03*
D12*
X111270000Y-69220000D03*
X108730000Y-71760000D03*
X111270000Y-71760000D03*
X108730000Y-74300000D03*
X111270000Y-74300000D03*
X108730000Y-76840000D03*
X111270000Y-76840000D03*
X108730000Y-79380000D03*
X111270000Y-79380000D03*
X108730000Y-81920000D03*
X111270000Y-81920000D03*
X108730000Y-84460000D03*
X111270000Y-84460000D03*
D11*
X130936200Y-92009900D03*
D12*
X128396200Y-92009900D03*
X130936200Y-89469900D03*
X128396200Y-89469900D03*
X130936200Y-86929900D03*
X128396200Y-86929900D03*
X130936200Y-84389900D03*
X128396200Y-84389900D03*
X130936200Y-81849900D03*
X128396200Y-81849900D03*
X130936200Y-79309900D03*
X128396200Y-79309900D03*
X130936200Y-76769900D03*
X128396200Y-76769900D03*
X130936200Y-74229900D03*
X128396200Y-74229900D03*
X130936200Y-71689900D03*
X128396200Y-71689900D03*
X130936200Y-69149900D03*
X128396200Y-69149900D03*
D13*
X120744200Y-69357160D03*
D14*
X120744200Y-71897160D03*
X120744200Y-74437160D03*
X120744200Y-76977160D03*
X120744200Y-79517160D03*
X120744200Y-82057160D03*
X120744200Y-84597160D03*
D13*
X139826200Y-90739900D03*
D14*
X139826200Y-88199900D03*
X139826200Y-85659900D03*
X139826200Y-83119900D03*
X139826200Y-80579900D03*
X139826200Y-78039900D03*
X139826200Y-75499900D03*
X139826200Y-72959900D03*
D15*
X136016200Y-67879900D03*
D16*
X138556200Y-67879900D03*
M02*
