G04 #@! TF.FileFunction,Copper,L2,Bot,Signal*
%FSLAX46Y46*%
G04 Gerber Fmt 4.6, Leading zero omitted, Abs format (unit mm)*
G04 Created by KiCad (PCBNEW 4.0.6) date 02/20/18 13:27:19*
%MOMM*%
%LPD*%
G01*
G04 APERTURE LIST*
%ADD10C,0.100000*%
%ADD11R,1.727200X1.727200*%
%ADD12O,1.727200X1.727200*%
%ADD13R,2.032000X1.727200*%
%ADD14O,2.032000X1.727200*%
%ADD15R,2.032000X2.032000*%
%ADD16O,2.032000X2.032000*%
%ADD17C,0.250000*%
%ADD18C,0.254000*%
G04 APERTURE END LIST*
D10*
D11*
X108730000Y-69220000D03*
D12*
X111270000Y-69220000D03*
X108730000Y-71760000D03*
X111270000Y-71760000D03*
X108730000Y-74300000D03*
X111270000Y-74300000D03*
X108730000Y-76840000D03*
X111270000Y-76840000D03*
X108730000Y-79380000D03*
X111270000Y-79380000D03*
X108730000Y-81920000D03*
X111270000Y-81920000D03*
X108730000Y-84460000D03*
X111270000Y-84460000D03*
D11*
X130936200Y-92009900D03*
D12*
X128396200Y-92009900D03*
X130936200Y-89469900D03*
X128396200Y-89469900D03*
X130936200Y-86929900D03*
X128396200Y-86929900D03*
X130936200Y-84389900D03*
X128396200Y-84389900D03*
X130936200Y-81849900D03*
X128396200Y-81849900D03*
X130936200Y-79309900D03*
X128396200Y-79309900D03*
X130936200Y-76769900D03*
X128396200Y-76769900D03*
X130936200Y-74229900D03*
X128396200Y-74229900D03*
X130936200Y-71689900D03*
X128396200Y-71689900D03*
X130936200Y-69149900D03*
X128396200Y-69149900D03*
D13*
X120744200Y-69357160D03*
D14*
X120744200Y-71897160D03*
X120744200Y-74437160D03*
X120744200Y-76977160D03*
X120744200Y-79517160D03*
X120744200Y-82057160D03*
X120744200Y-84597160D03*
D13*
X139826200Y-90739900D03*
D14*
X139826200Y-88199900D03*
X139826200Y-85659900D03*
X139826200Y-83119900D03*
X139826200Y-80579900D03*
X139826200Y-78039900D03*
X139826200Y-75499900D03*
X139826200Y-72959900D03*
D15*
X136016200Y-67879900D03*
D16*
X138556200Y-67879900D03*
D17*
X138556200Y-67879900D02*
X138556200Y-68692700D01*
X138556200Y-68692700D02*
X142102040Y-72238540D01*
X142102040Y-72238540D02*
X142102040Y-88464060D01*
X142102040Y-88464060D02*
X139826200Y-90739900D01*
X139826200Y-75499900D02*
X137331920Y-75499900D01*
X135117040Y-82749060D02*
X130936200Y-86929900D01*
X135117040Y-77714780D02*
X135117040Y-82749060D01*
X137331920Y-75499900D02*
X135117040Y-77714780D01*
D18*
G36*
X143290000Y-94290000D02*
X126127000Y-94290000D01*
X126127000Y-92009900D01*
X126868241Y-92009900D01*
X126982315Y-92583389D01*
X127307171Y-93069570D01*
X127793352Y-93394426D01*
X128366841Y-93508500D01*
X128425559Y-93508500D01*
X128999048Y-93394426D01*
X129464642Y-93083326D01*
X129469438Y-93108817D01*
X129608510Y-93324941D01*
X129820710Y-93469931D01*
X130072600Y-93520940D01*
X131799800Y-93520940D01*
X132035117Y-93476662D01*
X132251241Y-93337590D01*
X132396231Y-93125390D01*
X132447240Y-92873500D01*
X132447240Y-91146300D01*
X132402962Y-90910983D01*
X132263890Y-90694859D01*
X132051690Y-90549869D01*
X132008069Y-90541036D01*
X132025229Y-90529570D01*
X132350085Y-90043389D01*
X132464159Y-89469900D01*
X132350085Y-88896411D01*
X132025229Y-88410230D01*
X131710448Y-88199900D01*
X132025229Y-87989570D01*
X132350085Y-87503389D01*
X132464159Y-86929900D01*
X132388975Y-86551927D01*
X135654441Y-83286461D01*
X135819188Y-83039899D01*
X135877040Y-82749060D01*
X135877040Y-78029582D01*
X137646722Y-76259900D01*
X138381552Y-76259900D01*
X138581785Y-76559570D01*
X138896566Y-76769900D01*
X138581785Y-76980230D01*
X138256929Y-77466411D01*
X138142855Y-78039900D01*
X138256929Y-78613389D01*
X138581785Y-79099570D01*
X138891269Y-79306361D01*
X138475468Y-79677864D01*
X138221491Y-80205109D01*
X138218842Y-80220874D01*
X138339983Y-80452900D01*
X139699200Y-80452900D01*
X139699200Y-80432900D01*
X139953200Y-80432900D01*
X139953200Y-80452900D01*
X139973200Y-80452900D01*
X139973200Y-80706900D01*
X139953200Y-80706900D01*
X139953200Y-80726900D01*
X139699200Y-80726900D01*
X139699200Y-80706900D01*
X138339983Y-80706900D01*
X138218842Y-80938926D01*
X138221491Y-80954691D01*
X138475468Y-81481936D01*
X138891269Y-81853439D01*
X138581785Y-82060230D01*
X138256929Y-82546411D01*
X138142855Y-83119900D01*
X138256929Y-83693389D01*
X138581785Y-84179570D01*
X138896566Y-84389900D01*
X138581785Y-84600230D01*
X138256929Y-85086411D01*
X138142855Y-85659900D01*
X138256929Y-86233389D01*
X138581785Y-86719570D01*
X138896566Y-86929900D01*
X138581785Y-87140230D01*
X138256929Y-87626411D01*
X138142855Y-88199900D01*
X138256929Y-88773389D01*
X138581785Y-89259570D01*
X138596113Y-89269143D01*
X138574883Y-89273138D01*
X138358759Y-89412210D01*
X138213769Y-89624410D01*
X138162760Y-89876300D01*
X138162760Y-91603500D01*
X138207038Y-91838817D01*
X138346110Y-92054941D01*
X138558310Y-92199931D01*
X138810200Y-92250940D01*
X140842200Y-92250940D01*
X141077517Y-92206662D01*
X141293641Y-92067590D01*
X141438631Y-91855390D01*
X141489640Y-91603500D01*
X141489640Y-90151262D01*
X142639441Y-89001461D01*
X142804188Y-88754899D01*
X142862040Y-88464060D01*
X142862040Y-72238540D01*
X142804188Y-71947701D01*
X142639441Y-71701139D01*
X139841532Y-68903230D01*
X140081525Y-68544055D01*
X140207200Y-67912245D01*
X140207200Y-67847555D01*
X140081525Y-67215745D01*
X139723633Y-66680122D01*
X139188010Y-66322230D01*
X138556200Y-66196555D01*
X137924390Y-66322230D01*
X137584408Y-66549399D01*
X137496290Y-66412459D01*
X137284090Y-66267469D01*
X137032200Y-66216460D01*
X135000200Y-66216460D01*
X134764883Y-66260738D01*
X134548759Y-66399810D01*
X134403769Y-66612010D01*
X134352760Y-66863900D01*
X134352760Y-68895900D01*
X134397038Y-69131217D01*
X134536110Y-69347341D01*
X134748310Y-69492331D01*
X135000200Y-69543340D01*
X137032200Y-69543340D01*
X137267517Y-69499062D01*
X137483641Y-69359990D01*
X137585398Y-69211063D01*
X137924390Y-69437570D01*
X138301225Y-69512527D01*
X140309356Y-71520658D01*
X140010945Y-71461300D01*
X139641455Y-71461300D01*
X139067966Y-71575374D01*
X138581785Y-71900230D01*
X138256929Y-72386411D01*
X138142855Y-72959900D01*
X138256929Y-73533389D01*
X138581785Y-74019570D01*
X138896566Y-74229900D01*
X138581785Y-74440230D01*
X138381552Y-74739900D01*
X137331920Y-74739900D01*
X137041080Y-74797752D01*
X136794519Y-74962499D01*
X134579639Y-77177379D01*
X134414892Y-77423941D01*
X134357040Y-77714780D01*
X134357040Y-82434258D01*
X132453746Y-84337552D01*
X132350085Y-83816411D01*
X132025229Y-83330230D01*
X131710448Y-83119900D01*
X132025229Y-82909570D01*
X132350085Y-82423389D01*
X132464159Y-81849900D01*
X132350085Y-81276411D01*
X132025229Y-80790230D01*
X131710448Y-80579900D01*
X132025229Y-80369570D01*
X132350085Y-79883389D01*
X132464159Y-79309900D01*
X132350085Y-78736411D01*
X132025229Y-78250230D01*
X131710448Y-78039900D01*
X132025229Y-77829570D01*
X132350085Y-77343389D01*
X132464159Y-76769900D01*
X132350085Y-76196411D01*
X132025229Y-75710230D01*
X131710448Y-75499900D01*
X132025229Y-75289570D01*
X132350085Y-74803389D01*
X132464159Y-74229900D01*
X132350085Y-73656411D01*
X132025229Y-73170230D01*
X131710448Y-72959900D01*
X132025229Y-72749570D01*
X132350085Y-72263389D01*
X132464159Y-71689900D01*
X132350085Y-71116411D01*
X132025229Y-70630230D01*
X131710448Y-70419900D01*
X132025229Y-70209570D01*
X132350085Y-69723389D01*
X132464159Y-69149900D01*
X132350085Y-68576411D01*
X132025229Y-68090230D01*
X131539048Y-67765374D01*
X130965559Y-67651300D01*
X130906841Y-67651300D01*
X130333352Y-67765374D01*
X129847171Y-68090230D01*
X129666208Y-68361061D01*
X129284690Y-67943079D01*
X128755227Y-67694932D01*
X128523200Y-67815431D01*
X128523200Y-69022900D01*
X128543200Y-69022900D01*
X128543200Y-69276900D01*
X128523200Y-69276900D01*
X128523200Y-71562900D01*
X128543200Y-71562900D01*
X128543200Y-71816900D01*
X128523200Y-71816900D01*
X128523200Y-74102900D01*
X128543200Y-74102900D01*
X128543200Y-74356900D01*
X128523200Y-74356900D01*
X128523200Y-76642900D01*
X128543200Y-76642900D01*
X128543200Y-76896900D01*
X128523200Y-76896900D01*
X128523200Y-79182900D01*
X128543200Y-79182900D01*
X128543200Y-79436900D01*
X128523200Y-79436900D01*
X128523200Y-81722900D01*
X128543200Y-81722900D01*
X128543200Y-81976900D01*
X128523200Y-81976900D01*
X128523200Y-84262900D01*
X128543200Y-84262900D01*
X128543200Y-84516900D01*
X128523200Y-84516900D01*
X128523200Y-86802900D01*
X128543200Y-86802900D01*
X128543200Y-87056900D01*
X128523200Y-87056900D01*
X128523200Y-89342900D01*
X128543200Y-89342900D01*
X128543200Y-89596900D01*
X128523200Y-89596900D01*
X128523200Y-89616900D01*
X128269200Y-89616900D01*
X128269200Y-89596900D01*
X127062383Y-89596900D01*
X126941242Y-89828926D01*
X127113512Y-90244847D01*
X127507710Y-90676721D01*
X127630428Y-90734236D01*
X127307171Y-90950230D01*
X126982315Y-91436411D01*
X126868241Y-92009900D01*
X126127000Y-92009900D01*
X126127000Y-87288926D01*
X126941242Y-87288926D01*
X127113512Y-87704847D01*
X127507710Y-88136721D01*
X127642513Y-88199900D01*
X127507710Y-88263079D01*
X127113512Y-88694953D01*
X126941242Y-89110874D01*
X127062383Y-89342900D01*
X128269200Y-89342900D01*
X128269200Y-87056900D01*
X127062383Y-87056900D01*
X126941242Y-87288926D01*
X126127000Y-87288926D01*
X126127000Y-84748926D01*
X126941242Y-84748926D01*
X127113512Y-85164847D01*
X127507710Y-85596721D01*
X127642513Y-85659900D01*
X127507710Y-85723079D01*
X127113512Y-86154953D01*
X126941242Y-86570874D01*
X127062383Y-86802900D01*
X128269200Y-86802900D01*
X128269200Y-84516900D01*
X127062383Y-84516900D01*
X126941242Y-84748926D01*
X126127000Y-84748926D01*
X126127000Y-82208926D01*
X126941242Y-82208926D01*
X127113512Y-82624847D01*
X127507710Y-83056721D01*
X127642513Y-83119900D01*
X127507710Y-83183079D01*
X127113512Y-83614953D01*
X126941242Y-84030874D01*
X127062383Y-84262900D01*
X128269200Y-84262900D01*
X128269200Y-81976900D01*
X127062383Y-81976900D01*
X126941242Y-82208926D01*
X126127000Y-82208926D01*
X126127000Y-79668926D01*
X126941242Y-79668926D01*
X127113512Y-80084847D01*
X127507710Y-80516721D01*
X127642513Y-80579900D01*
X127507710Y-80643079D01*
X127113512Y-81074953D01*
X126941242Y-81490874D01*
X127062383Y-81722900D01*
X128269200Y-81722900D01*
X128269200Y-79436900D01*
X127062383Y-79436900D01*
X126941242Y-79668926D01*
X126127000Y-79668926D01*
X126127000Y-77128926D01*
X126941242Y-77128926D01*
X127113512Y-77544847D01*
X127507710Y-77976721D01*
X127642513Y-78039900D01*
X127507710Y-78103079D01*
X127113512Y-78534953D01*
X126941242Y-78950874D01*
X127062383Y-79182900D01*
X128269200Y-79182900D01*
X128269200Y-76896900D01*
X127062383Y-76896900D01*
X126941242Y-77128926D01*
X126127000Y-77128926D01*
X126127000Y-74588926D01*
X126941242Y-74588926D01*
X127113512Y-75004847D01*
X127507710Y-75436721D01*
X127642513Y-75499900D01*
X127507710Y-75563079D01*
X127113512Y-75994953D01*
X126941242Y-76410874D01*
X127062383Y-76642900D01*
X128269200Y-76642900D01*
X128269200Y-74356900D01*
X127062383Y-74356900D01*
X126941242Y-74588926D01*
X126127000Y-74588926D01*
X126127000Y-72048926D01*
X126941242Y-72048926D01*
X127113512Y-72464847D01*
X127507710Y-72896721D01*
X127642513Y-72959900D01*
X127507710Y-73023079D01*
X127113512Y-73454953D01*
X126941242Y-73870874D01*
X127062383Y-74102900D01*
X128269200Y-74102900D01*
X128269200Y-71816900D01*
X127062383Y-71816900D01*
X126941242Y-72048926D01*
X126127000Y-72048926D01*
X126127000Y-69508926D01*
X126941242Y-69508926D01*
X127113512Y-69924847D01*
X127507710Y-70356721D01*
X127642513Y-70419900D01*
X127507710Y-70483079D01*
X127113512Y-70914953D01*
X126941242Y-71330874D01*
X127062383Y-71562900D01*
X128269200Y-71562900D01*
X128269200Y-69276900D01*
X127062383Y-69276900D01*
X126941242Y-69508926D01*
X126127000Y-69508926D01*
X126127000Y-68790874D01*
X126941242Y-68790874D01*
X127062383Y-69022900D01*
X128269200Y-69022900D01*
X128269200Y-67815431D01*
X128037173Y-67694932D01*
X127507710Y-67943079D01*
X127113512Y-68374953D01*
X126941242Y-68790874D01*
X126127000Y-68790874D01*
X126127000Y-63710000D01*
X143290000Y-63710000D01*
X143290000Y-94290000D01*
X143290000Y-94290000D01*
G37*
X143290000Y-94290000D02*
X126127000Y-94290000D01*
X126127000Y-92009900D01*
X126868241Y-92009900D01*
X126982315Y-92583389D01*
X127307171Y-93069570D01*
X127793352Y-93394426D01*
X128366841Y-93508500D01*
X128425559Y-93508500D01*
X128999048Y-93394426D01*
X129464642Y-93083326D01*
X129469438Y-93108817D01*
X129608510Y-93324941D01*
X129820710Y-93469931D01*
X130072600Y-93520940D01*
X131799800Y-93520940D01*
X132035117Y-93476662D01*
X132251241Y-93337590D01*
X132396231Y-93125390D01*
X132447240Y-92873500D01*
X132447240Y-91146300D01*
X132402962Y-90910983D01*
X132263890Y-90694859D01*
X132051690Y-90549869D01*
X132008069Y-90541036D01*
X132025229Y-90529570D01*
X132350085Y-90043389D01*
X132464159Y-89469900D01*
X132350085Y-88896411D01*
X132025229Y-88410230D01*
X131710448Y-88199900D01*
X132025229Y-87989570D01*
X132350085Y-87503389D01*
X132464159Y-86929900D01*
X132388975Y-86551927D01*
X135654441Y-83286461D01*
X135819188Y-83039899D01*
X135877040Y-82749060D01*
X135877040Y-78029582D01*
X137646722Y-76259900D01*
X138381552Y-76259900D01*
X138581785Y-76559570D01*
X138896566Y-76769900D01*
X138581785Y-76980230D01*
X138256929Y-77466411D01*
X138142855Y-78039900D01*
X138256929Y-78613389D01*
X138581785Y-79099570D01*
X138891269Y-79306361D01*
X138475468Y-79677864D01*
X138221491Y-80205109D01*
X138218842Y-80220874D01*
X138339983Y-80452900D01*
X139699200Y-80452900D01*
X139699200Y-80432900D01*
X139953200Y-80432900D01*
X139953200Y-80452900D01*
X139973200Y-80452900D01*
X139973200Y-80706900D01*
X139953200Y-80706900D01*
X139953200Y-80726900D01*
X139699200Y-80726900D01*
X139699200Y-80706900D01*
X138339983Y-80706900D01*
X138218842Y-80938926D01*
X138221491Y-80954691D01*
X138475468Y-81481936D01*
X138891269Y-81853439D01*
X138581785Y-82060230D01*
X138256929Y-82546411D01*
X138142855Y-83119900D01*
X138256929Y-83693389D01*
X138581785Y-84179570D01*
X138896566Y-84389900D01*
X138581785Y-84600230D01*
X138256929Y-85086411D01*
X138142855Y-85659900D01*
X138256929Y-86233389D01*
X138581785Y-86719570D01*
X138896566Y-86929900D01*
X138581785Y-87140230D01*
X138256929Y-87626411D01*
X138142855Y-88199900D01*
X138256929Y-88773389D01*
X138581785Y-89259570D01*
X138596113Y-89269143D01*
X138574883Y-89273138D01*
X138358759Y-89412210D01*
X138213769Y-89624410D01*
X138162760Y-89876300D01*
X138162760Y-91603500D01*
X138207038Y-91838817D01*
X138346110Y-92054941D01*
X138558310Y-92199931D01*
X138810200Y-92250940D01*
X140842200Y-92250940D01*
X141077517Y-92206662D01*
X141293641Y-92067590D01*
X141438631Y-91855390D01*
X141489640Y-91603500D01*
X141489640Y-90151262D01*
X142639441Y-89001461D01*
X142804188Y-88754899D01*
X142862040Y-88464060D01*
X142862040Y-72238540D01*
X142804188Y-71947701D01*
X142639441Y-71701139D01*
X139841532Y-68903230D01*
X140081525Y-68544055D01*
X140207200Y-67912245D01*
X140207200Y-67847555D01*
X140081525Y-67215745D01*
X139723633Y-66680122D01*
X139188010Y-66322230D01*
X138556200Y-66196555D01*
X137924390Y-66322230D01*
X137584408Y-66549399D01*
X137496290Y-66412459D01*
X137284090Y-66267469D01*
X137032200Y-66216460D01*
X135000200Y-66216460D01*
X134764883Y-66260738D01*
X134548759Y-66399810D01*
X134403769Y-66612010D01*
X134352760Y-66863900D01*
X134352760Y-68895900D01*
X134397038Y-69131217D01*
X134536110Y-69347341D01*
X134748310Y-69492331D01*
X135000200Y-69543340D01*
X137032200Y-69543340D01*
X137267517Y-69499062D01*
X137483641Y-69359990D01*
X137585398Y-69211063D01*
X137924390Y-69437570D01*
X138301225Y-69512527D01*
X140309356Y-71520658D01*
X140010945Y-71461300D01*
X139641455Y-71461300D01*
X139067966Y-71575374D01*
X138581785Y-71900230D01*
X138256929Y-72386411D01*
X138142855Y-72959900D01*
X138256929Y-73533389D01*
X138581785Y-74019570D01*
X138896566Y-74229900D01*
X138581785Y-74440230D01*
X138381552Y-74739900D01*
X137331920Y-74739900D01*
X137041080Y-74797752D01*
X136794519Y-74962499D01*
X134579639Y-77177379D01*
X134414892Y-77423941D01*
X134357040Y-77714780D01*
X134357040Y-82434258D01*
X132453746Y-84337552D01*
X132350085Y-83816411D01*
X132025229Y-83330230D01*
X131710448Y-83119900D01*
X132025229Y-82909570D01*
X132350085Y-82423389D01*
X132464159Y-81849900D01*
X132350085Y-81276411D01*
X132025229Y-80790230D01*
X131710448Y-80579900D01*
X132025229Y-80369570D01*
X132350085Y-79883389D01*
X132464159Y-79309900D01*
X132350085Y-78736411D01*
X132025229Y-78250230D01*
X131710448Y-78039900D01*
X132025229Y-77829570D01*
X132350085Y-77343389D01*
X132464159Y-76769900D01*
X132350085Y-76196411D01*
X132025229Y-75710230D01*
X131710448Y-75499900D01*
X132025229Y-75289570D01*
X132350085Y-74803389D01*
X132464159Y-74229900D01*
X132350085Y-73656411D01*
X132025229Y-73170230D01*
X131710448Y-72959900D01*
X132025229Y-72749570D01*
X132350085Y-72263389D01*
X132464159Y-71689900D01*
X132350085Y-71116411D01*
X132025229Y-70630230D01*
X131710448Y-70419900D01*
X132025229Y-70209570D01*
X132350085Y-69723389D01*
X132464159Y-69149900D01*
X132350085Y-68576411D01*
X132025229Y-68090230D01*
X131539048Y-67765374D01*
X130965559Y-67651300D01*
X130906841Y-67651300D01*
X130333352Y-67765374D01*
X129847171Y-68090230D01*
X129666208Y-68361061D01*
X129284690Y-67943079D01*
X128755227Y-67694932D01*
X128523200Y-67815431D01*
X128523200Y-69022900D01*
X128543200Y-69022900D01*
X128543200Y-69276900D01*
X128523200Y-69276900D01*
X128523200Y-71562900D01*
X128543200Y-71562900D01*
X128543200Y-71816900D01*
X128523200Y-71816900D01*
X128523200Y-74102900D01*
X128543200Y-74102900D01*
X128543200Y-74356900D01*
X128523200Y-74356900D01*
X128523200Y-76642900D01*
X128543200Y-76642900D01*
X128543200Y-76896900D01*
X128523200Y-76896900D01*
X128523200Y-79182900D01*
X128543200Y-79182900D01*
X128543200Y-79436900D01*
X128523200Y-79436900D01*
X128523200Y-81722900D01*
X128543200Y-81722900D01*
X128543200Y-81976900D01*
X128523200Y-81976900D01*
X128523200Y-84262900D01*
X128543200Y-84262900D01*
X128543200Y-84516900D01*
X128523200Y-84516900D01*
X128523200Y-86802900D01*
X128543200Y-86802900D01*
X128543200Y-87056900D01*
X128523200Y-87056900D01*
X128523200Y-89342900D01*
X128543200Y-89342900D01*
X128543200Y-89596900D01*
X128523200Y-89596900D01*
X128523200Y-89616900D01*
X128269200Y-89616900D01*
X128269200Y-89596900D01*
X127062383Y-89596900D01*
X126941242Y-89828926D01*
X127113512Y-90244847D01*
X127507710Y-90676721D01*
X127630428Y-90734236D01*
X127307171Y-90950230D01*
X126982315Y-91436411D01*
X126868241Y-92009900D01*
X126127000Y-92009900D01*
X126127000Y-87288926D01*
X126941242Y-87288926D01*
X127113512Y-87704847D01*
X127507710Y-88136721D01*
X127642513Y-88199900D01*
X127507710Y-88263079D01*
X127113512Y-88694953D01*
X126941242Y-89110874D01*
X127062383Y-89342900D01*
X128269200Y-89342900D01*
X128269200Y-87056900D01*
X127062383Y-87056900D01*
X126941242Y-87288926D01*
X126127000Y-87288926D01*
X126127000Y-84748926D01*
X126941242Y-84748926D01*
X127113512Y-85164847D01*
X127507710Y-85596721D01*
X127642513Y-85659900D01*
X127507710Y-85723079D01*
X127113512Y-86154953D01*
X126941242Y-86570874D01*
X127062383Y-86802900D01*
X128269200Y-86802900D01*
X128269200Y-84516900D01*
X127062383Y-84516900D01*
X126941242Y-84748926D01*
X126127000Y-84748926D01*
X126127000Y-82208926D01*
X126941242Y-82208926D01*
X127113512Y-82624847D01*
X127507710Y-83056721D01*
X127642513Y-83119900D01*
X127507710Y-83183079D01*
X127113512Y-83614953D01*
X126941242Y-84030874D01*
X127062383Y-84262900D01*
X128269200Y-84262900D01*
X128269200Y-81976900D01*
X127062383Y-81976900D01*
X126941242Y-82208926D01*
X126127000Y-82208926D01*
X126127000Y-79668926D01*
X126941242Y-79668926D01*
X127113512Y-80084847D01*
X127507710Y-80516721D01*
X127642513Y-80579900D01*
X127507710Y-80643079D01*
X127113512Y-81074953D01*
X126941242Y-81490874D01*
X127062383Y-81722900D01*
X128269200Y-81722900D01*
X128269200Y-79436900D01*
X127062383Y-79436900D01*
X126941242Y-79668926D01*
X126127000Y-79668926D01*
X126127000Y-77128926D01*
X126941242Y-77128926D01*
X127113512Y-77544847D01*
X127507710Y-77976721D01*
X127642513Y-78039900D01*
X127507710Y-78103079D01*
X127113512Y-78534953D01*
X126941242Y-78950874D01*
X127062383Y-79182900D01*
X128269200Y-79182900D01*
X128269200Y-76896900D01*
X127062383Y-76896900D01*
X126941242Y-77128926D01*
X126127000Y-77128926D01*
X126127000Y-74588926D01*
X126941242Y-74588926D01*
X127113512Y-75004847D01*
X127507710Y-75436721D01*
X127642513Y-75499900D01*
X127507710Y-75563079D01*
X127113512Y-75994953D01*
X126941242Y-76410874D01*
X127062383Y-76642900D01*
X128269200Y-76642900D01*
X128269200Y-74356900D01*
X127062383Y-74356900D01*
X126941242Y-74588926D01*
X126127000Y-74588926D01*
X126127000Y-72048926D01*
X126941242Y-72048926D01*
X127113512Y-72464847D01*
X127507710Y-72896721D01*
X127642513Y-72959900D01*
X127507710Y-73023079D01*
X127113512Y-73454953D01*
X126941242Y-73870874D01*
X127062383Y-74102900D01*
X128269200Y-74102900D01*
X128269200Y-71816900D01*
X127062383Y-71816900D01*
X126941242Y-72048926D01*
X126127000Y-72048926D01*
X126127000Y-69508926D01*
X126941242Y-69508926D01*
X127113512Y-69924847D01*
X127507710Y-70356721D01*
X127642513Y-70419900D01*
X127507710Y-70483079D01*
X127113512Y-70914953D01*
X126941242Y-71330874D01*
X127062383Y-71562900D01*
X128269200Y-71562900D01*
X128269200Y-69276900D01*
X127062383Y-69276900D01*
X126941242Y-69508926D01*
X126127000Y-69508926D01*
X126127000Y-68790874D01*
X126941242Y-68790874D01*
X127062383Y-69022900D01*
X128269200Y-69022900D01*
X128269200Y-67815431D01*
X128037173Y-67694932D01*
X127507710Y-67943079D01*
X127113512Y-68374953D01*
X126941242Y-68790874D01*
X126127000Y-68790874D01*
X126127000Y-63710000D01*
X143290000Y-63710000D01*
X143290000Y-94290000D01*
G36*
X122873000Y-94290000D02*
X105710000Y-94290000D01*
X105710000Y-71760000D01*
X107202041Y-71760000D01*
X107316115Y-72333489D01*
X107640971Y-72819670D01*
X107955752Y-73030000D01*
X107640971Y-73240330D01*
X107316115Y-73726511D01*
X107202041Y-74300000D01*
X107316115Y-74873489D01*
X107640971Y-75359670D01*
X107955752Y-75570000D01*
X107640971Y-75780330D01*
X107316115Y-76266511D01*
X107202041Y-76840000D01*
X107316115Y-77413489D01*
X107640971Y-77899670D01*
X107955752Y-78110000D01*
X107640971Y-78320330D01*
X107316115Y-78806511D01*
X107202041Y-79380000D01*
X107316115Y-79953489D01*
X107640971Y-80439670D01*
X107955752Y-80650000D01*
X107640971Y-80860330D01*
X107316115Y-81346511D01*
X107202041Y-81920000D01*
X107316115Y-82493489D01*
X107640971Y-82979670D01*
X107955752Y-83190000D01*
X107640971Y-83400330D01*
X107316115Y-83886511D01*
X107202041Y-84460000D01*
X107316115Y-85033489D01*
X107640971Y-85519670D01*
X108127152Y-85844526D01*
X108700641Y-85958600D01*
X108759359Y-85958600D01*
X109332848Y-85844526D01*
X109819029Y-85519670D01*
X110000000Y-85248828D01*
X110180971Y-85519670D01*
X110667152Y-85844526D01*
X111240641Y-85958600D01*
X111299359Y-85958600D01*
X111872848Y-85844526D01*
X112359029Y-85519670D01*
X112683885Y-85033489D01*
X112699261Y-84956186D01*
X119136842Y-84956186D01*
X119139491Y-84971951D01*
X119393468Y-85499196D01*
X119829880Y-85889114D01*
X120382287Y-86082344D01*
X120617200Y-85938084D01*
X120617200Y-84724160D01*
X120871200Y-84724160D01*
X120871200Y-85938084D01*
X121106113Y-86082344D01*
X121658520Y-85889114D01*
X122094932Y-85499196D01*
X122348909Y-84971951D01*
X122351558Y-84956186D01*
X122230417Y-84724160D01*
X120871200Y-84724160D01*
X120617200Y-84724160D01*
X119257983Y-84724160D01*
X119136842Y-84956186D01*
X112699261Y-84956186D01*
X112797959Y-84460000D01*
X112683885Y-83886511D01*
X112359029Y-83400330D01*
X112035772Y-83184336D01*
X112158490Y-83126821D01*
X112552688Y-82694947D01*
X112724958Y-82279026D01*
X112603817Y-82047000D01*
X111397000Y-82047000D01*
X111397000Y-82067000D01*
X111143000Y-82067000D01*
X111143000Y-82047000D01*
X111123000Y-82047000D01*
X111123000Y-81793000D01*
X111143000Y-81793000D01*
X111143000Y-79507000D01*
X111397000Y-79507000D01*
X111397000Y-81793000D01*
X112603817Y-81793000D01*
X112724958Y-81560974D01*
X112552688Y-81145053D01*
X112158490Y-80713179D01*
X112023687Y-80650000D01*
X112158490Y-80586821D01*
X112552688Y-80154947D01*
X112724958Y-79739026D01*
X112603817Y-79507000D01*
X111397000Y-79507000D01*
X111143000Y-79507000D01*
X111123000Y-79507000D01*
X111123000Y-79253000D01*
X111143000Y-79253000D01*
X111143000Y-76967000D01*
X111397000Y-76967000D01*
X111397000Y-79253000D01*
X112603817Y-79253000D01*
X112724958Y-79020974D01*
X112552688Y-78605053D01*
X112158490Y-78173179D01*
X112023687Y-78110000D01*
X112158490Y-78046821D01*
X112552688Y-77614947D01*
X112724958Y-77199026D01*
X112603817Y-76967000D01*
X111397000Y-76967000D01*
X111143000Y-76967000D01*
X111123000Y-76967000D01*
X111123000Y-76713000D01*
X111143000Y-76713000D01*
X111143000Y-76693000D01*
X111397000Y-76693000D01*
X111397000Y-76713000D01*
X112603817Y-76713000D01*
X112724958Y-76480974D01*
X112552688Y-76065053D01*
X112158490Y-75633179D01*
X112035772Y-75575664D01*
X112359029Y-75359670D01*
X112683885Y-74873489D01*
X112797959Y-74300000D01*
X112683885Y-73726511D01*
X112359029Y-73240330D01*
X112035772Y-73024336D01*
X112158490Y-72966821D01*
X112552688Y-72534947D01*
X112724958Y-72119026D01*
X112609122Y-71897160D01*
X119060855Y-71897160D01*
X119174929Y-72470649D01*
X119499785Y-72956830D01*
X119814566Y-73167160D01*
X119499785Y-73377490D01*
X119174929Y-73863671D01*
X119060855Y-74437160D01*
X119174929Y-75010649D01*
X119499785Y-75496830D01*
X119814566Y-75707160D01*
X119499785Y-75917490D01*
X119174929Y-76403671D01*
X119060855Y-76977160D01*
X119174929Y-77550649D01*
X119499785Y-78036830D01*
X119814566Y-78247160D01*
X119499785Y-78457490D01*
X119174929Y-78943671D01*
X119060855Y-79517160D01*
X119174929Y-80090649D01*
X119499785Y-80576830D01*
X119814566Y-80787160D01*
X119499785Y-80997490D01*
X119174929Y-81483671D01*
X119060855Y-82057160D01*
X119174929Y-82630649D01*
X119499785Y-83116830D01*
X119809269Y-83323621D01*
X119393468Y-83695124D01*
X119139491Y-84222369D01*
X119136842Y-84238134D01*
X119257983Y-84470160D01*
X120617200Y-84470160D01*
X120617200Y-84450160D01*
X120871200Y-84450160D01*
X120871200Y-84470160D01*
X122230417Y-84470160D01*
X122351558Y-84238134D01*
X122348909Y-84222369D01*
X122094932Y-83695124D01*
X121679131Y-83323621D01*
X121988615Y-83116830D01*
X122313471Y-82630649D01*
X122427545Y-82057160D01*
X122313471Y-81483671D01*
X121988615Y-80997490D01*
X121673834Y-80787160D01*
X121988615Y-80576830D01*
X122313471Y-80090649D01*
X122427545Y-79517160D01*
X122313471Y-78943671D01*
X121988615Y-78457490D01*
X121673834Y-78247160D01*
X121988615Y-78036830D01*
X122313471Y-77550649D01*
X122427545Y-76977160D01*
X122313471Y-76403671D01*
X121988615Y-75917490D01*
X121673834Y-75707160D01*
X121988615Y-75496830D01*
X122313471Y-75010649D01*
X122427545Y-74437160D01*
X122313471Y-73863671D01*
X121988615Y-73377490D01*
X121673834Y-73167160D01*
X121988615Y-72956830D01*
X122313471Y-72470649D01*
X122427545Y-71897160D01*
X122313471Y-71323671D01*
X121988615Y-70837490D01*
X121974287Y-70827917D01*
X121995517Y-70823922D01*
X122211641Y-70684850D01*
X122356631Y-70472650D01*
X122407640Y-70220760D01*
X122407640Y-68493560D01*
X122363362Y-68258243D01*
X122224290Y-68042119D01*
X122012090Y-67897129D01*
X121760200Y-67846120D01*
X119728200Y-67846120D01*
X119492883Y-67890398D01*
X119276759Y-68029470D01*
X119131769Y-68241670D01*
X119080760Y-68493560D01*
X119080760Y-70220760D01*
X119125038Y-70456077D01*
X119264110Y-70672201D01*
X119476310Y-70817191D01*
X119517639Y-70825560D01*
X119499785Y-70837490D01*
X119174929Y-71323671D01*
X119060855Y-71897160D01*
X112609122Y-71897160D01*
X112603817Y-71887000D01*
X111397000Y-71887000D01*
X111397000Y-71907000D01*
X111143000Y-71907000D01*
X111143000Y-71887000D01*
X111123000Y-71887000D01*
X111123000Y-71633000D01*
X111143000Y-71633000D01*
X111143000Y-71613000D01*
X111397000Y-71613000D01*
X111397000Y-71633000D01*
X112603817Y-71633000D01*
X112724958Y-71400974D01*
X112552688Y-70985053D01*
X112158490Y-70553179D01*
X112035772Y-70495664D01*
X112359029Y-70279670D01*
X112683885Y-69793489D01*
X112797959Y-69220000D01*
X112683885Y-68646511D01*
X112359029Y-68160330D01*
X111872848Y-67835474D01*
X111299359Y-67721400D01*
X111240641Y-67721400D01*
X110667152Y-67835474D01*
X110201558Y-68146574D01*
X110196762Y-68121083D01*
X110057690Y-67904959D01*
X109845490Y-67759969D01*
X109593600Y-67708960D01*
X107866400Y-67708960D01*
X107631083Y-67753238D01*
X107414959Y-67892310D01*
X107269969Y-68104510D01*
X107218960Y-68356400D01*
X107218960Y-70083600D01*
X107263238Y-70318917D01*
X107402310Y-70535041D01*
X107614510Y-70680031D01*
X107658131Y-70688864D01*
X107640971Y-70700330D01*
X107316115Y-71186511D01*
X107202041Y-71760000D01*
X105710000Y-71760000D01*
X105710000Y-63710000D01*
X122873000Y-63710000D01*
X122873000Y-94290000D01*
X122873000Y-94290000D01*
G37*
X122873000Y-94290000D02*
X105710000Y-94290000D01*
X105710000Y-71760000D01*
X107202041Y-71760000D01*
X107316115Y-72333489D01*
X107640971Y-72819670D01*
X107955752Y-73030000D01*
X107640971Y-73240330D01*
X107316115Y-73726511D01*
X107202041Y-74300000D01*
X107316115Y-74873489D01*
X107640971Y-75359670D01*
X107955752Y-75570000D01*
X107640971Y-75780330D01*
X107316115Y-76266511D01*
X107202041Y-76840000D01*
X107316115Y-77413489D01*
X107640971Y-77899670D01*
X107955752Y-78110000D01*
X107640971Y-78320330D01*
X107316115Y-78806511D01*
X107202041Y-79380000D01*
X107316115Y-79953489D01*
X107640971Y-80439670D01*
X107955752Y-80650000D01*
X107640971Y-80860330D01*
X107316115Y-81346511D01*
X107202041Y-81920000D01*
X107316115Y-82493489D01*
X107640971Y-82979670D01*
X107955752Y-83190000D01*
X107640971Y-83400330D01*
X107316115Y-83886511D01*
X107202041Y-84460000D01*
X107316115Y-85033489D01*
X107640971Y-85519670D01*
X108127152Y-85844526D01*
X108700641Y-85958600D01*
X108759359Y-85958600D01*
X109332848Y-85844526D01*
X109819029Y-85519670D01*
X110000000Y-85248828D01*
X110180971Y-85519670D01*
X110667152Y-85844526D01*
X111240641Y-85958600D01*
X111299359Y-85958600D01*
X111872848Y-85844526D01*
X112359029Y-85519670D01*
X112683885Y-85033489D01*
X112699261Y-84956186D01*
X119136842Y-84956186D01*
X119139491Y-84971951D01*
X119393468Y-85499196D01*
X119829880Y-85889114D01*
X120382287Y-86082344D01*
X120617200Y-85938084D01*
X120617200Y-84724160D01*
X120871200Y-84724160D01*
X120871200Y-85938084D01*
X121106113Y-86082344D01*
X121658520Y-85889114D01*
X122094932Y-85499196D01*
X122348909Y-84971951D01*
X122351558Y-84956186D01*
X122230417Y-84724160D01*
X120871200Y-84724160D01*
X120617200Y-84724160D01*
X119257983Y-84724160D01*
X119136842Y-84956186D01*
X112699261Y-84956186D01*
X112797959Y-84460000D01*
X112683885Y-83886511D01*
X112359029Y-83400330D01*
X112035772Y-83184336D01*
X112158490Y-83126821D01*
X112552688Y-82694947D01*
X112724958Y-82279026D01*
X112603817Y-82047000D01*
X111397000Y-82047000D01*
X111397000Y-82067000D01*
X111143000Y-82067000D01*
X111143000Y-82047000D01*
X111123000Y-82047000D01*
X111123000Y-81793000D01*
X111143000Y-81793000D01*
X111143000Y-79507000D01*
X111397000Y-79507000D01*
X111397000Y-81793000D01*
X112603817Y-81793000D01*
X112724958Y-81560974D01*
X112552688Y-81145053D01*
X112158490Y-80713179D01*
X112023687Y-80650000D01*
X112158490Y-80586821D01*
X112552688Y-80154947D01*
X112724958Y-79739026D01*
X112603817Y-79507000D01*
X111397000Y-79507000D01*
X111143000Y-79507000D01*
X111123000Y-79507000D01*
X111123000Y-79253000D01*
X111143000Y-79253000D01*
X111143000Y-76967000D01*
X111397000Y-76967000D01*
X111397000Y-79253000D01*
X112603817Y-79253000D01*
X112724958Y-79020974D01*
X112552688Y-78605053D01*
X112158490Y-78173179D01*
X112023687Y-78110000D01*
X112158490Y-78046821D01*
X112552688Y-77614947D01*
X112724958Y-77199026D01*
X112603817Y-76967000D01*
X111397000Y-76967000D01*
X111143000Y-76967000D01*
X111123000Y-76967000D01*
X111123000Y-76713000D01*
X111143000Y-76713000D01*
X111143000Y-76693000D01*
X111397000Y-76693000D01*
X111397000Y-76713000D01*
X112603817Y-76713000D01*
X112724958Y-76480974D01*
X112552688Y-76065053D01*
X112158490Y-75633179D01*
X112035772Y-75575664D01*
X112359029Y-75359670D01*
X112683885Y-74873489D01*
X112797959Y-74300000D01*
X112683885Y-73726511D01*
X112359029Y-73240330D01*
X112035772Y-73024336D01*
X112158490Y-72966821D01*
X112552688Y-72534947D01*
X112724958Y-72119026D01*
X112609122Y-71897160D01*
X119060855Y-71897160D01*
X119174929Y-72470649D01*
X119499785Y-72956830D01*
X119814566Y-73167160D01*
X119499785Y-73377490D01*
X119174929Y-73863671D01*
X119060855Y-74437160D01*
X119174929Y-75010649D01*
X119499785Y-75496830D01*
X119814566Y-75707160D01*
X119499785Y-75917490D01*
X119174929Y-76403671D01*
X119060855Y-76977160D01*
X119174929Y-77550649D01*
X119499785Y-78036830D01*
X119814566Y-78247160D01*
X119499785Y-78457490D01*
X119174929Y-78943671D01*
X119060855Y-79517160D01*
X119174929Y-80090649D01*
X119499785Y-80576830D01*
X119814566Y-80787160D01*
X119499785Y-80997490D01*
X119174929Y-81483671D01*
X119060855Y-82057160D01*
X119174929Y-82630649D01*
X119499785Y-83116830D01*
X119809269Y-83323621D01*
X119393468Y-83695124D01*
X119139491Y-84222369D01*
X119136842Y-84238134D01*
X119257983Y-84470160D01*
X120617200Y-84470160D01*
X120617200Y-84450160D01*
X120871200Y-84450160D01*
X120871200Y-84470160D01*
X122230417Y-84470160D01*
X122351558Y-84238134D01*
X122348909Y-84222369D01*
X122094932Y-83695124D01*
X121679131Y-83323621D01*
X121988615Y-83116830D01*
X122313471Y-82630649D01*
X122427545Y-82057160D01*
X122313471Y-81483671D01*
X121988615Y-80997490D01*
X121673834Y-80787160D01*
X121988615Y-80576830D01*
X122313471Y-80090649D01*
X122427545Y-79517160D01*
X122313471Y-78943671D01*
X121988615Y-78457490D01*
X121673834Y-78247160D01*
X121988615Y-78036830D01*
X122313471Y-77550649D01*
X122427545Y-76977160D01*
X122313471Y-76403671D01*
X121988615Y-75917490D01*
X121673834Y-75707160D01*
X121988615Y-75496830D01*
X122313471Y-75010649D01*
X122427545Y-74437160D01*
X122313471Y-73863671D01*
X121988615Y-73377490D01*
X121673834Y-73167160D01*
X121988615Y-72956830D01*
X122313471Y-72470649D01*
X122427545Y-71897160D01*
X122313471Y-71323671D01*
X121988615Y-70837490D01*
X121974287Y-70827917D01*
X121995517Y-70823922D01*
X122211641Y-70684850D01*
X122356631Y-70472650D01*
X122407640Y-70220760D01*
X122407640Y-68493560D01*
X122363362Y-68258243D01*
X122224290Y-68042119D01*
X122012090Y-67897129D01*
X121760200Y-67846120D01*
X119728200Y-67846120D01*
X119492883Y-67890398D01*
X119276759Y-68029470D01*
X119131769Y-68241670D01*
X119080760Y-68493560D01*
X119080760Y-70220760D01*
X119125038Y-70456077D01*
X119264110Y-70672201D01*
X119476310Y-70817191D01*
X119517639Y-70825560D01*
X119499785Y-70837490D01*
X119174929Y-71323671D01*
X119060855Y-71897160D01*
X112609122Y-71897160D01*
X112603817Y-71887000D01*
X111397000Y-71887000D01*
X111397000Y-71907000D01*
X111143000Y-71907000D01*
X111143000Y-71887000D01*
X111123000Y-71887000D01*
X111123000Y-71633000D01*
X111143000Y-71633000D01*
X111143000Y-71613000D01*
X111397000Y-71613000D01*
X111397000Y-71633000D01*
X112603817Y-71633000D01*
X112724958Y-71400974D01*
X112552688Y-70985053D01*
X112158490Y-70553179D01*
X112035772Y-70495664D01*
X112359029Y-70279670D01*
X112683885Y-69793489D01*
X112797959Y-69220000D01*
X112683885Y-68646511D01*
X112359029Y-68160330D01*
X111872848Y-67835474D01*
X111299359Y-67721400D01*
X111240641Y-67721400D01*
X110667152Y-67835474D01*
X110201558Y-68146574D01*
X110196762Y-68121083D01*
X110057690Y-67904959D01*
X109845490Y-67759969D01*
X109593600Y-67708960D01*
X107866400Y-67708960D01*
X107631083Y-67753238D01*
X107414959Y-67892310D01*
X107269969Y-68104510D01*
X107218960Y-68356400D01*
X107218960Y-70083600D01*
X107263238Y-70318917D01*
X107402310Y-70535041D01*
X107614510Y-70680031D01*
X107658131Y-70688864D01*
X107640971Y-70700330D01*
X107316115Y-71186511D01*
X107202041Y-71760000D01*
X105710000Y-71760000D01*
X105710000Y-63710000D01*
X122873000Y-63710000D01*
X122873000Y-94290000D01*
M02*
