G04 #@! TF.FileFunction,Profile,NP*
%FSLAX46Y46*%
G04 Gerber Fmt 4.6, Leading zero omitted, Abs format (unit mm)*
G04 Created by KiCad (PCBNEW 4.0.6) date 02/20/18 13:27:19*
%MOMM*%
%LPD*%
G01*
G04 APERTURE LIST*
%ADD10C,0.100000*%
%ADD11C,0.150000*%
G04 APERTURE END LIST*
D10*
D11*
X144000000Y-95000000D02*
X105000000Y-95000000D01*
X144000000Y-63000000D02*
X105000000Y-63000000D01*
X124000000Y-64000000D02*
X124000000Y-70000000D01*
X125000000Y-64000000D02*
X124000000Y-64000000D01*
X125000000Y-70000000D02*
X125000000Y-64000000D01*
X124000000Y-94000000D02*
X124000000Y-86000000D01*
X125000000Y-94000000D02*
X124000000Y-94000000D01*
X125000000Y-86000000D02*
X125000000Y-94000000D01*
X124000000Y-86000000D02*
X125000000Y-86000000D01*
X124000000Y-85000000D02*
X124000000Y-78000000D01*
X125000000Y-85000000D02*
X124000000Y-85000000D01*
X125000000Y-78000000D02*
X125000000Y-85000000D01*
X124000000Y-78000000D02*
X125000000Y-78000000D01*
X124000000Y-77000000D02*
X124000000Y-71000000D01*
X125000000Y-77000000D02*
X124000000Y-77000000D01*
X125000000Y-71000000D02*
X125000000Y-77000000D01*
X124000000Y-71000000D02*
X125000000Y-71000000D01*
X124000000Y-70000000D02*
X125000000Y-70000000D01*
X144000000Y-63000000D02*
X144000000Y-95000000D01*
X105000000Y-95000000D02*
X105000000Y-63000000D01*
M02*
