G04 #@! TF.FileFunction,Copper,L1,Top,Signal*
%FSLAX46Y46*%
G04 Gerber Fmt 4.6, Leading zero omitted, Abs format (unit mm)*
G04 Created by KiCad (PCBNEW 4.0.6) date 02/20/18 13:27:19*
%MOMM*%
%LPD*%
G01*
G04 APERTURE LIST*
%ADD10C,0.100000*%
%ADD11R,1.727200X1.727200*%
%ADD12O,1.727200X1.727200*%
%ADD13R,2.032000X1.727200*%
%ADD14O,2.032000X1.727200*%
%ADD15R,1.700000X2.000000*%
%ADD16R,2.032000X2.032000*%
%ADD17O,2.032000X2.032000*%
%ADD18C,0.250000*%
%ADD19C,0.254000*%
G04 APERTURE END LIST*
D10*
D11*
X108730000Y-69220000D03*
D12*
X111270000Y-69220000D03*
X108730000Y-71760000D03*
X111270000Y-71760000D03*
X108730000Y-74300000D03*
X111270000Y-74300000D03*
X108730000Y-76840000D03*
X111270000Y-76840000D03*
X108730000Y-79380000D03*
X111270000Y-79380000D03*
X108730000Y-81920000D03*
X111270000Y-81920000D03*
X108730000Y-84460000D03*
X111270000Y-84460000D03*
D11*
X130936200Y-92009900D03*
D12*
X128396200Y-92009900D03*
X130936200Y-89469900D03*
X128396200Y-89469900D03*
X130936200Y-86929900D03*
X128396200Y-86929900D03*
X130936200Y-84389900D03*
X128396200Y-84389900D03*
X130936200Y-81849900D03*
X128396200Y-81849900D03*
X130936200Y-79309900D03*
X128396200Y-79309900D03*
X130936200Y-76769900D03*
X128396200Y-76769900D03*
X130936200Y-74229900D03*
X128396200Y-74229900D03*
X130936200Y-71689900D03*
X128396200Y-71689900D03*
X130936200Y-69149900D03*
X128396200Y-69149900D03*
D13*
X120744200Y-69357160D03*
D14*
X120744200Y-71897160D03*
X120744200Y-74437160D03*
X120744200Y-76977160D03*
X120744200Y-79517160D03*
X120744200Y-82057160D03*
X120744200Y-84597160D03*
D13*
X139826200Y-90739900D03*
D14*
X139826200Y-88199900D03*
X139826200Y-85659900D03*
X139826200Y-83119900D03*
X139826200Y-80579900D03*
X139826200Y-78039900D03*
X139826200Y-75499900D03*
X139826200Y-72959900D03*
D15*
X107460000Y-88810000D03*
X107460000Y-92810000D03*
X111270000Y-88810000D03*
X111270000Y-92810000D03*
D16*
X136016200Y-67879900D03*
D17*
X138556200Y-67879900D03*
D18*
X136016200Y-67879900D02*
X132206200Y-67879900D01*
X132206200Y-67879900D02*
X130936200Y-69149900D01*
X130936200Y-92009900D02*
X138556200Y-92009900D01*
X138556200Y-92009900D02*
X139826200Y-90739900D01*
X108730000Y-69220000D02*
X108928120Y-69220000D01*
X108928120Y-69220000D02*
X110210820Y-70502700D01*
X110210820Y-70502700D02*
X114681220Y-70502700D01*
X114681220Y-70502700D02*
X117363460Y-73184940D01*
X117363460Y-73184940D02*
X117363460Y-74386360D01*
X117363460Y-74386360D02*
X117414260Y-74437160D01*
X117414260Y-74437160D02*
X120744200Y-74437160D01*
X111270000Y-69220000D02*
X115298440Y-69220000D01*
X117975600Y-71897160D02*
X120744200Y-71897160D01*
X115298440Y-69220000D02*
X117975600Y-71897160D01*
X108730000Y-71760000D02*
X108813820Y-71760000D01*
X108813820Y-71760000D02*
X110071120Y-73017300D01*
X110071120Y-73017300D02*
X113982720Y-73017300D01*
X113982720Y-73017300D02*
X115910580Y-74945160D01*
X115910580Y-74945160D02*
X115910580Y-76817140D01*
X115910580Y-76817140D02*
X116070600Y-76977160D01*
X116070600Y-76977160D02*
X120744200Y-76977160D01*
X107460000Y-92810000D02*
X106050000Y-92810000D01*
X105824240Y-92584240D02*
X105824240Y-73911380D01*
X106050000Y-92810000D02*
X105824240Y-92584240D01*
X108730000Y-74300000D02*
X106212860Y-74300000D01*
X106212860Y-74300000D02*
X105824240Y-73911380D01*
X119654540Y-69357160D02*
X120744200Y-69357160D01*
X116804660Y-66507280D02*
X119654540Y-69357160D01*
X106690380Y-66507280D02*
X116804660Y-66507280D01*
X105824240Y-67373420D02*
X106690380Y-66507280D01*
X105824240Y-73911380D02*
X105824240Y-67373420D01*
X111270000Y-92810000D02*
X107460000Y-92810000D01*
X108730000Y-76840000D02*
X108730000Y-76928900D01*
X108730000Y-76928900D02*
X109903480Y-78102380D01*
X109903480Y-78102380D02*
X115435600Y-78102380D01*
X115435600Y-78102380D02*
X116850380Y-79517160D01*
X116850380Y-79517160D02*
X120744200Y-79517160D01*
X108730000Y-79380000D02*
X108890020Y-79380000D01*
X108890020Y-79380000D02*
X110182880Y-80672860D01*
X110182880Y-80672860D02*
X116860540Y-80672860D01*
X116860540Y-80672860D02*
X118244840Y-82057160D01*
X118244840Y-82057160D02*
X120744200Y-82057160D01*
X108730000Y-84460000D02*
X107460000Y-85730000D01*
X107460000Y-85730000D02*
X107460000Y-88810000D01*
X111270000Y-84460000D02*
X111270000Y-88810000D01*
X139826200Y-80579900D02*
X141096200Y-80579900D01*
X133476200Y-83119900D02*
X128396200Y-83119900D01*
X137286200Y-86929900D02*
X133476200Y-83119900D01*
X142366200Y-86929900D02*
X137286200Y-86929900D01*
X142366200Y-81849900D02*
X142366200Y-86929900D01*
X141096200Y-80579900D02*
X142366200Y-81849900D01*
X128396200Y-81849900D02*
X128396200Y-83119900D01*
X128396200Y-83119900D02*
X128396200Y-84389900D01*
X130936200Y-84389900D02*
X133476200Y-84389900D01*
X137286200Y-88199900D02*
X139826200Y-88199900D01*
X133476200Y-84389900D02*
X137286200Y-88199900D01*
X130936200Y-81849900D02*
X134746200Y-81849900D01*
X138556200Y-85659900D02*
X139826200Y-85659900D01*
X134746200Y-81849900D02*
X138556200Y-85659900D01*
X130936200Y-76769900D02*
X138556200Y-76769900D01*
X138556200Y-76769900D02*
X139826200Y-78039900D01*
X130936200Y-74229900D02*
X129666200Y-74229900D01*
X138556200Y-83119900D02*
X139826200Y-83119900D01*
X136016200Y-80579900D02*
X138556200Y-83119900D01*
X129666200Y-80579900D02*
X136016200Y-80579900D01*
X129666200Y-74229900D02*
X129666200Y-80579900D01*
X130936200Y-71689900D02*
X138556200Y-71689900D01*
X138556200Y-71689900D02*
X139826200Y-72959900D01*
D19*
G36*
X143290000Y-94290000D02*
X126127000Y-94290000D01*
X126127000Y-92009900D01*
X126868241Y-92009900D01*
X126982315Y-92583389D01*
X127307171Y-93069570D01*
X127793352Y-93394426D01*
X128366841Y-93508500D01*
X128425559Y-93508500D01*
X128999048Y-93394426D01*
X129464642Y-93083326D01*
X129469438Y-93108817D01*
X129608510Y-93324941D01*
X129820710Y-93469931D01*
X130072600Y-93520940D01*
X131799800Y-93520940D01*
X132035117Y-93476662D01*
X132251241Y-93337590D01*
X132396231Y-93125390D01*
X132447240Y-92873500D01*
X132447240Y-92769900D01*
X138556200Y-92769900D01*
X138847039Y-92712048D01*
X139093601Y-92547301D01*
X139389962Y-92250940D01*
X140842200Y-92250940D01*
X141077517Y-92206662D01*
X141293641Y-92067590D01*
X141438631Y-91855390D01*
X141489640Y-91603500D01*
X141489640Y-89876300D01*
X141445362Y-89640983D01*
X141306290Y-89424859D01*
X141094090Y-89279869D01*
X141052761Y-89271500D01*
X141070615Y-89259570D01*
X141395471Y-88773389D01*
X141509545Y-88199900D01*
X141395471Y-87626411D01*
X141070615Y-87140230D01*
X140755834Y-86929900D01*
X141070615Y-86719570D01*
X141395471Y-86233389D01*
X141509545Y-85659900D01*
X141395471Y-85086411D01*
X141070615Y-84600230D01*
X140755834Y-84389900D01*
X141070615Y-84179570D01*
X141395471Y-83693389D01*
X141509545Y-83119900D01*
X141395471Y-82546411D01*
X141070615Y-82060230D01*
X140761131Y-81853439D01*
X141176932Y-81481936D01*
X141430909Y-80954691D01*
X141433558Y-80938926D01*
X141312417Y-80706900D01*
X139953200Y-80706900D01*
X139953200Y-80726900D01*
X139699200Y-80726900D01*
X139699200Y-80706900D01*
X138339983Y-80706900D01*
X138218842Y-80938926D01*
X138221491Y-80954691D01*
X138475468Y-81481936D01*
X138891269Y-81853439D01*
X138581785Y-82060230D01*
X138577598Y-82066496D01*
X136553601Y-80042499D01*
X136307039Y-79877752D01*
X136016200Y-79819900D01*
X132362714Y-79819900D01*
X132464159Y-79309900D01*
X132350085Y-78736411D01*
X132025229Y-78250230D01*
X131710448Y-78039900D01*
X132025229Y-77829570D01*
X132225462Y-77529900D01*
X138241398Y-77529900D01*
X138243819Y-77532321D01*
X138142855Y-78039900D01*
X138256929Y-78613389D01*
X138581785Y-79099570D01*
X138891269Y-79306361D01*
X138475468Y-79677864D01*
X138221491Y-80205109D01*
X138218842Y-80220874D01*
X138339983Y-80452900D01*
X139699200Y-80452900D01*
X139699200Y-80432900D01*
X139953200Y-80432900D01*
X139953200Y-80452900D01*
X141312417Y-80452900D01*
X141433558Y-80220874D01*
X141430909Y-80205109D01*
X141176932Y-79677864D01*
X140761131Y-79306361D01*
X141070615Y-79099570D01*
X141395471Y-78613389D01*
X141509545Y-78039900D01*
X141395471Y-77466411D01*
X141070615Y-76980230D01*
X140755834Y-76769900D01*
X141070615Y-76559570D01*
X141395471Y-76073389D01*
X141509545Y-75499900D01*
X141395471Y-74926411D01*
X141070615Y-74440230D01*
X140755834Y-74229900D01*
X141070615Y-74019570D01*
X141395471Y-73533389D01*
X141509545Y-72959900D01*
X141395471Y-72386411D01*
X141070615Y-71900230D01*
X140584434Y-71575374D01*
X140010945Y-71461300D01*
X139641455Y-71461300D01*
X139442063Y-71500961D01*
X139093601Y-71152499D01*
X138847039Y-70987752D01*
X138556200Y-70929900D01*
X132225462Y-70929900D01*
X132025229Y-70630230D01*
X131710448Y-70419900D01*
X132025229Y-70209570D01*
X132350085Y-69723389D01*
X132464159Y-69149900D01*
X132388975Y-68771927D01*
X132521002Y-68639900D01*
X134352760Y-68639900D01*
X134352760Y-68895900D01*
X134397038Y-69131217D01*
X134536110Y-69347341D01*
X134748310Y-69492331D01*
X135000200Y-69543340D01*
X137032200Y-69543340D01*
X137267517Y-69499062D01*
X137483641Y-69359990D01*
X137585398Y-69211063D01*
X137924390Y-69437570D01*
X138556200Y-69563245D01*
X139188010Y-69437570D01*
X139723633Y-69079678D01*
X140081525Y-68544055D01*
X140207200Y-67912245D01*
X140207200Y-67847555D01*
X140081525Y-67215745D01*
X139723633Y-66680122D01*
X139188010Y-66322230D01*
X138556200Y-66196555D01*
X137924390Y-66322230D01*
X137584408Y-66549399D01*
X137496290Y-66412459D01*
X137284090Y-66267469D01*
X137032200Y-66216460D01*
X135000200Y-66216460D01*
X134764883Y-66260738D01*
X134548759Y-66399810D01*
X134403769Y-66612010D01*
X134352760Y-66863900D01*
X134352760Y-67119900D01*
X132206200Y-67119900D01*
X131915360Y-67177752D01*
X131668799Y-67342499D01*
X131294556Y-67716742D01*
X130965559Y-67651300D01*
X130906841Y-67651300D01*
X130333352Y-67765374D01*
X129847171Y-68090230D01*
X129666208Y-68361061D01*
X129284690Y-67943079D01*
X128755227Y-67694932D01*
X128523200Y-67815431D01*
X128523200Y-69022900D01*
X128543200Y-69022900D01*
X128543200Y-69276900D01*
X128523200Y-69276900D01*
X128523200Y-71562900D01*
X128543200Y-71562900D01*
X128543200Y-71816900D01*
X128523200Y-71816900D01*
X128523200Y-74102900D01*
X128543200Y-74102900D01*
X128543200Y-74356900D01*
X128523200Y-74356900D01*
X128523200Y-76642900D01*
X128543200Y-76642900D01*
X128543200Y-76896900D01*
X128523200Y-76896900D01*
X128523200Y-79182900D01*
X128543200Y-79182900D01*
X128543200Y-79436900D01*
X128523200Y-79436900D01*
X128523200Y-81722900D01*
X128543200Y-81722900D01*
X128543200Y-81976900D01*
X128523200Y-81976900D01*
X128523200Y-84262900D01*
X128543200Y-84262900D01*
X128543200Y-84516900D01*
X128523200Y-84516900D01*
X128523200Y-86802900D01*
X128543200Y-86802900D01*
X128543200Y-87056900D01*
X128523200Y-87056900D01*
X128523200Y-89342900D01*
X128543200Y-89342900D01*
X128543200Y-89596900D01*
X128523200Y-89596900D01*
X128523200Y-89616900D01*
X128269200Y-89616900D01*
X128269200Y-89596900D01*
X127062383Y-89596900D01*
X126941242Y-89828926D01*
X127113512Y-90244847D01*
X127507710Y-90676721D01*
X127630428Y-90734236D01*
X127307171Y-90950230D01*
X126982315Y-91436411D01*
X126868241Y-92009900D01*
X126127000Y-92009900D01*
X126127000Y-87288926D01*
X126941242Y-87288926D01*
X127113512Y-87704847D01*
X127507710Y-88136721D01*
X127642513Y-88199900D01*
X127507710Y-88263079D01*
X127113512Y-88694953D01*
X126941242Y-89110874D01*
X127062383Y-89342900D01*
X128269200Y-89342900D01*
X128269200Y-87056900D01*
X127062383Y-87056900D01*
X126941242Y-87288926D01*
X126127000Y-87288926D01*
X126127000Y-84748926D01*
X126941242Y-84748926D01*
X127113512Y-85164847D01*
X127507710Y-85596721D01*
X127642513Y-85659900D01*
X127507710Y-85723079D01*
X127113512Y-86154953D01*
X126941242Y-86570874D01*
X127062383Y-86802900D01*
X128269200Y-86802900D01*
X128269200Y-84516900D01*
X127062383Y-84516900D01*
X126941242Y-84748926D01*
X126127000Y-84748926D01*
X126127000Y-82208926D01*
X126941242Y-82208926D01*
X127113512Y-82624847D01*
X127507710Y-83056721D01*
X127642513Y-83119900D01*
X127507710Y-83183079D01*
X127113512Y-83614953D01*
X126941242Y-84030874D01*
X127062383Y-84262900D01*
X128269200Y-84262900D01*
X128269200Y-81976900D01*
X127062383Y-81976900D01*
X126941242Y-82208926D01*
X126127000Y-82208926D01*
X126127000Y-79668926D01*
X126941242Y-79668926D01*
X127113512Y-80084847D01*
X127507710Y-80516721D01*
X127642513Y-80579900D01*
X127507710Y-80643079D01*
X127113512Y-81074953D01*
X126941242Y-81490874D01*
X127062383Y-81722900D01*
X128269200Y-81722900D01*
X128269200Y-79436900D01*
X127062383Y-79436900D01*
X126941242Y-79668926D01*
X126127000Y-79668926D01*
X126127000Y-77128926D01*
X126941242Y-77128926D01*
X127113512Y-77544847D01*
X127507710Y-77976721D01*
X127642513Y-78039900D01*
X127507710Y-78103079D01*
X127113512Y-78534953D01*
X126941242Y-78950874D01*
X127062383Y-79182900D01*
X128269200Y-79182900D01*
X128269200Y-76896900D01*
X127062383Y-76896900D01*
X126941242Y-77128926D01*
X126127000Y-77128926D01*
X126127000Y-74588926D01*
X126941242Y-74588926D01*
X127113512Y-75004847D01*
X127507710Y-75436721D01*
X127642513Y-75499900D01*
X127507710Y-75563079D01*
X127113512Y-75994953D01*
X126941242Y-76410874D01*
X127062383Y-76642900D01*
X128269200Y-76642900D01*
X128269200Y-74356900D01*
X127062383Y-74356900D01*
X126941242Y-74588926D01*
X126127000Y-74588926D01*
X126127000Y-72048926D01*
X126941242Y-72048926D01*
X127113512Y-72464847D01*
X127507710Y-72896721D01*
X127642513Y-72959900D01*
X127507710Y-73023079D01*
X127113512Y-73454953D01*
X126941242Y-73870874D01*
X127062383Y-74102900D01*
X128269200Y-74102900D01*
X128269200Y-71816900D01*
X127062383Y-71816900D01*
X126941242Y-72048926D01*
X126127000Y-72048926D01*
X126127000Y-69508926D01*
X126941242Y-69508926D01*
X127113512Y-69924847D01*
X127507710Y-70356721D01*
X127642513Y-70419900D01*
X127507710Y-70483079D01*
X127113512Y-70914953D01*
X126941242Y-71330874D01*
X127062383Y-71562900D01*
X128269200Y-71562900D01*
X128269200Y-69276900D01*
X127062383Y-69276900D01*
X126941242Y-69508926D01*
X126127000Y-69508926D01*
X126127000Y-68790874D01*
X126941242Y-68790874D01*
X127062383Y-69022900D01*
X128269200Y-69022900D01*
X128269200Y-67815431D01*
X128037173Y-67694932D01*
X127507710Y-67943079D01*
X127113512Y-68374953D01*
X126941242Y-68790874D01*
X126127000Y-68790874D01*
X126127000Y-63710000D01*
X143290000Y-63710000D01*
X143290000Y-94290000D01*
X143290000Y-94290000D01*
G37*
X143290000Y-94290000D02*
X126127000Y-94290000D01*
X126127000Y-92009900D01*
X126868241Y-92009900D01*
X126982315Y-92583389D01*
X127307171Y-93069570D01*
X127793352Y-93394426D01*
X128366841Y-93508500D01*
X128425559Y-93508500D01*
X128999048Y-93394426D01*
X129464642Y-93083326D01*
X129469438Y-93108817D01*
X129608510Y-93324941D01*
X129820710Y-93469931D01*
X130072600Y-93520940D01*
X131799800Y-93520940D01*
X132035117Y-93476662D01*
X132251241Y-93337590D01*
X132396231Y-93125390D01*
X132447240Y-92873500D01*
X132447240Y-92769900D01*
X138556200Y-92769900D01*
X138847039Y-92712048D01*
X139093601Y-92547301D01*
X139389962Y-92250940D01*
X140842200Y-92250940D01*
X141077517Y-92206662D01*
X141293641Y-92067590D01*
X141438631Y-91855390D01*
X141489640Y-91603500D01*
X141489640Y-89876300D01*
X141445362Y-89640983D01*
X141306290Y-89424859D01*
X141094090Y-89279869D01*
X141052761Y-89271500D01*
X141070615Y-89259570D01*
X141395471Y-88773389D01*
X141509545Y-88199900D01*
X141395471Y-87626411D01*
X141070615Y-87140230D01*
X140755834Y-86929900D01*
X141070615Y-86719570D01*
X141395471Y-86233389D01*
X141509545Y-85659900D01*
X141395471Y-85086411D01*
X141070615Y-84600230D01*
X140755834Y-84389900D01*
X141070615Y-84179570D01*
X141395471Y-83693389D01*
X141509545Y-83119900D01*
X141395471Y-82546411D01*
X141070615Y-82060230D01*
X140761131Y-81853439D01*
X141176932Y-81481936D01*
X141430909Y-80954691D01*
X141433558Y-80938926D01*
X141312417Y-80706900D01*
X139953200Y-80706900D01*
X139953200Y-80726900D01*
X139699200Y-80726900D01*
X139699200Y-80706900D01*
X138339983Y-80706900D01*
X138218842Y-80938926D01*
X138221491Y-80954691D01*
X138475468Y-81481936D01*
X138891269Y-81853439D01*
X138581785Y-82060230D01*
X138577598Y-82066496D01*
X136553601Y-80042499D01*
X136307039Y-79877752D01*
X136016200Y-79819900D01*
X132362714Y-79819900D01*
X132464159Y-79309900D01*
X132350085Y-78736411D01*
X132025229Y-78250230D01*
X131710448Y-78039900D01*
X132025229Y-77829570D01*
X132225462Y-77529900D01*
X138241398Y-77529900D01*
X138243819Y-77532321D01*
X138142855Y-78039900D01*
X138256929Y-78613389D01*
X138581785Y-79099570D01*
X138891269Y-79306361D01*
X138475468Y-79677864D01*
X138221491Y-80205109D01*
X138218842Y-80220874D01*
X138339983Y-80452900D01*
X139699200Y-80452900D01*
X139699200Y-80432900D01*
X139953200Y-80432900D01*
X139953200Y-80452900D01*
X141312417Y-80452900D01*
X141433558Y-80220874D01*
X141430909Y-80205109D01*
X141176932Y-79677864D01*
X140761131Y-79306361D01*
X141070615Y-79099570D01*
X141395471Y-78613389D01*
X141509545Y-78039900D01*
X141395471Y-77466411D01*
X141070615Y-76980230D01*
X140755834Y-76769900D01*
X141070615Y-76559570D01*
X141395471Y-76073389D01*
X141509545Y-75499900D01*
X141395471Y-74926411D01*
X141070615Y-74440230D01*
X140755834Y-74229900D01*
X141070615Y-74019570D01*
X141395471Y-73533389D01*
X141509545Y-72959900D01*
X141395471Y-72386411D01*
X141070615Y-71900230D01*
X140584434Y-71575374D01*
X140010945Y-71461300D01*
X139641455Y-71461300D01*
X139442063Y-71500961D01*
X139093601Y-71152499D01*
X138847039Y-70987752D01*
X138556200Y-70929900D01*
X132225462Y-70929900D01*
X132025229Y-70630230D01*
X131710448Y-70419900D01*
X132025229Y-70209570D01*
X132350085Y-69723389D01*
X132464159Y-69149900D01*
X132388975Y-68771927D01*
X132521002Y-68639900D01*
X134352760Y-68639900D01*
X134352760Y-68895900D01*
X134397038Y-69131217D01*
X134536110Y-69347341D01*
X134748310Y-69492331D01*
X135000200Y-69543340D01*
X137032200Y-69543340D01*
X137267517Y-69499062D01*
X137483641Y-69359990D01*
X137585398Y-69211063D01*
X137924390Y-69437570D01*
X138556200Y-69563245D01*
X139188010Y-69437570D01*
X139723633Y-69079678D01*
X140081525Y-68544055D01*
X140207200Y-67912245D01*
X140207200Y-67847555D01*
X140081525Y-67215745D01*
X139723633Y-66680122D01*
X139188010Y-66322230D01*
X138556200Y-66196555D01*
X137924390Y-66322230D01*
X137584408Y-66549399D01*
X137496290Y-66412459D01*
X137284090Y-66267469D01*
X137032200Y-66216460D01*
X135000200Y-66216460D01*
X134764883Y-66260738D01*
X134548759Y-66399810D01*
X134403769Y-66612010D01*
X134352760Y-66863900D01*
X134352760Y-67119900D01*
X132206200Y-67119900D01*
X131915360Y-67177752D01*
X131668799Y-67342499D01*
X131294556Y-67716742D01*
X130965559Y-67651300D01*
X130906841Y-67651300D01*
X130333352Y-67765374D01*
X129847171Y-68090230D01*
X129666208Y-68361061D01*
X129284690Y-67943079D01*
X128755227Y-67694932D01*
X128523200Y-67815431D01*
X128523200Y-69022900D01*
X128543200Y-69022900D01*
X128543200Y-69276900D01*
X128523200Y-69276900D01*
X128523200Y-71562900D01*
X128543200Y-71562900D01*
X128543200Y-71816900D01*
X128523200Y-71816900D01*
X128523200Y-74102900D01*
X128543200Y-74102900D01*
X128543200Y-74356900D01*
X128523200Y-74356900D01*
X128523200Y-76642900D01*
X128543200Y-76642900D01*
X128543200Y-76896900D01*
X128523200Y-76896900D01*
X128523200Y-79182900D01*
X128543200Y-79182900D01*
X128543200Y-79436900D01*
X128523200Y-79436900D01*
X128523200Y-81722900D01*
X128543200Y-81722900D01*
X128543200Y-81976900D01*
X128523200Y-81976900D01*
X128523200Y-84262900D01*
X128543200Y-84262900D01*
X128543200Y-84516900D01*
X128523200Y-84516900D01*
X128523200Y-86802900D01*
X128543200Y-86802900D01*
X128543200Y-87056900D01*
X128523200Y-87056900D01*
X128523200Y-89342900D01*
X128543200Y-89342900D01*
X128543200Y-89596900D01*
X128523200Y-89596900D01*
X128523200Y-89616900D01*
X128269200Y-89616900D01*
X128269200Y-89596900D01*
X127062383Y-89596900D01*
X126941242Y-89828926D01*
X127113512Y-90244847D01*
X127507710Y-90676721D01*
X127630428Y-90734236D01*
X127307171Y-90950230D01*
X126982315Y-91436411D01*
X126868241Y-92009900D01*
X126127000Y-92009900D01*
X126127000Y-87288926D01*
X126941242Y-87288926D01*
X127113512Y-87704847D01*
X127507710Y-88136721D01*
X127642513Y-88199900D01*
X127507710Y-88263079D01*
X127113512Y-88694953D01*
X126941242Y-89110874D01*
X127062383Y-89342900D01*
X128269200Y-89342900D01*
X128269200Y-87056900D01*
X127062383Y-87056900D01*
X126941242Y-87288926D01*
X126127000Y-87288926D01*
X126127000Y-84748926D01*
X126941242Y-84748926D01*
X127113512Y-85164847D01*
X127507710Y-85596721D01*
X127642513Y-85659900D01*
X127507710Y-85723079D01*
X127113512Y-86154953D01*
X126941242Y-86570874D01*
X127062383Y-86802900D01*
X128269200Y-86802900D01*
X128269200Y-84516900D01*
X127062383Y-84516900D01*
X126941242Y-84748926D01*
X126127000Y-84748926D01*
X126127000Y-82208926D01*
X126941242Y-82208926D01*
X127113512Y-82624847D01*
X127507710Y-83056721D01*
X127642513Y-83119900D01*
X127507710Y-83183079D01*
X127113512Y-83614953D01*
X126941242Y-84030874D01*
X127062383Y-84262900D01*
X128269200Y-84262900D01*
X128269200Y-81976900D01*
X127062383Y-81976900D01*
X126941242Y-82208926D01*
X126127000Y-82208926D01*
X126127000Y-79668926D01*
X126941242Y-79668926D01*
X127113512Y-80084847D01*
X127507710Y-80516721D01*
X127642513Y-80579900D01*
X127507710Y-80643079D01*
X127113512Y-81074953D01*
X126941242Y-81490874D01*
X127062383Y-81722900D01*
X128269200Y-81722900D01*
X128269200Y-79436900D01*
X127062383Y-79436900D01*
X126941242Y-79668926D01*
X126127000Y-79668926D01*
X126127000Y-77128926D01*
X126941242Y-77128926D01*
X127113512Y-77544847D01*
X127507710Y-77976721D01*
X127642513Y-78039900D01*
X127507710Y-78103079D01*
X127113512Y-78534953D01*
X126941242Y-78950874D01*
X127062383Y-79182900D01*
X128269200Y-79182900D01*
X128269200Y-76896900D01*
X127062383Y-76896900D01*
X126941242Y-77128926D01*
X126127000Y-77128926D01*
X126127000Y-74588926D01*
X126941242Y-74588926D01*
X127113512Y-75004847D01*
X127507710Y-75436721D01*
X127642513Y-75499900D01*
X127507710Y-75563079D01*
X127113512Y-75994953D01*
X126941242Y-76410874D01*
X127062383Y-76642900D01*
X128269200Y-76642900D01*
X128269200Y-74356900D01*
X127062383Y-74356900D01*
X126941242Y-74588926D01*
X126127000Y-74588926D01*
X126127000Y-72048926D01*
X126941242Y-72048926D01*
X127113512Y-72464847D01*
X127507710Y-72896721D01*
X127642513Y-72959900D01*
X127507710Y-73023079D01*
X127113512Y-73454953D01*
X126941242Y-73870874D01*
X127062383Y-74102900D01*
X128269200Y-74102900D01*
X128269200Y-71816900D01*
X127062383Y-71816900D01*
X126941242Y-72048926D01*
X126127000Y-72048926D01*
X126127000Y-69508926D01*
X126941242Y-69508926D01*
X127113512Y-69924847D01*
X127507710Y-70356721D01*
X127642513Y-70419900D01*
X127507710Y-70483079D01*
X127113512Y-70914953D01*
X126941242Y-71330874D01*
X127062383Y-71562900D01*
X128269200Y-71562900D01*
X128269200Y-69276900D01*
X127062383Y-69276900D01*
X126941242Y-69508926D01*
X126127000Y-69508926D01*
X126127000Y-68790874D01*
X126941242Y-68790874D01*
X127062383Y-69022900D01*
X128269200Y-69022900D01*
X128269200Y-67815431D01*
X128037173Y-67694932D01*
X127507710Y-67943079D01*
X127113512Y-68374953D01*
X126941242Y-68790874D01*
X126127000Y-68790874D01*
X126127000Y-63710000D01*
X143290000Y-63710000D01*
X143290000Y-94290000D01*
G36*
X138018799Y-86197301D02*
X138265361Y-86362048D01*
X138354781Y-86379835D01*
X138581785Y-86719570D01*
X138896566Y-86929900D01*
X138581785Y-87140230D01*
X138381552Y-87439900D01*
X137601002Y-87439900D01*
X134013601Y-83852499D01*
X133767039Y-83687752D01*
X133476200Y-83629900D01*
X132225462Y-83629900D01*
X132025229Y-83330230D01*
X131710448Y-83119900D01*
X132025229Y-82909570D01*
X132225462Y-82609900D01*
X134431398Y-82609900D01*
X138018799Y-86197301D01*
X138018799Y-86197301D01*
G37*
X138018799Y-86197301D02*
X138265361Y-86362048D01*
X138354781Y-86379835D01*
X138581785Y-86719570D01*
X138896566Y-86929900D01*
X138581785Y-87140230D01*
X138381552Y-87439900D01*
X137601002Y-87439900D01*
X134013601Y-83852499D01*
X133767039Y-83687752D01*
X133476200Y-83629900D01*
X132225462Y-83629900D01*
X132025229Y-83330230D01*
X131710448Y-83119900D01*
X132025229Y-82909570D01*
X132225462Y-82609900D01*
X134431398Y-82609900D01*
X138018799Y-86197301D01*
G36*
X122873000Y-94290000D02*
X112546716Y-94290000D01*
X112571441Y-94274090D01*
X112716431Y-94061890D01*
X112767440Y-93810000D01*
X112767440Y-91810000D01*
X112723162Y-91574683D01*
X112584090Y-91358559D01*
X112371890Y-91213569D01*
X112120000Y-91162560D01*
X110420000Y-91162560D01*
X110184683Y-91206838D01*
X109968559Y-91345910D01*
X109823569Y-91558110D01*
X109772560Y-91810000D01*
X109772560Y-92050000D01*
X108957440Y-92050000D01*
X108957440Y-91810000D01*
X108913162Y-91574683D01*
X108774090Y-91358559D01*
X108561890Y-91213569D01*
X108310000Y-91162560D01*
X106610000Y-91162560D01*
X106584240Y-91167407D01*
X106584240Y-90452223D01*
X106610000Y-90457440D01*
X108310000Y-90457440D01*
X108545317Y-90413162D01*
X108761441Y-90274090D01*
X108906431Y-90061890D01*
X108957440Y-89810000D01*
X108957440Y-87810000D01*
X108913162Y-87574683D01*
X108774090Y-87358559D01*
X108561890Y-87213569D01*
X108310000Y-87162560D01*
X108220000Y-87162560D01*
X108220000Y-86044802D01*
X108371644Y-85893158D01*
X108700641Y-85958600D01*
X108759359Y-85958600D01*
X109332848Y-85844526D01*
X109819029Y-85519670D01*
X110000000Y-85248828D01*
X110180971Y-85519670D01*
X110510000Y-85739520D01*
X110510000Y-87162560D01*
X110420000Y-87162560D01*
X110184683Y-87206838D01*
X109968559Y-87345910D01*
X109823569Y-87558110D01*
X109772560Y-87810000D01*
X109772560Y-89810000D01*
X109816838Y-90045317D01*
X109955910Y-90261441D01*
X110168110Y-90406431D01*
X110420000Y-90457440D01*
X112120000Y-90457440D01*
X112355317Y-90413162D01*
X112571441Y-90274090D01*
X112716431Y-90061890D01*
X112767440Y-89810000D01*
X112767440Y-87810000D01*
X112723162Y-87574683D01*
X112584090Y-87358559D01*
X112371890Y-87213569D01*
X112120000Y-87162560D01*
X112030000Y-87162560D01*
X112030000Y-85739520D01*
X112359029Y-85519670D01*
X112683885Y-85033489D01*
X112699261Y-84956186D01*
X119136842Y-84956186D01*
X119139491Y-84971951D01*
X119393468Y-85499196D01*
X119829880Y-85889114D01*
X120382287Y-86082344D01*
X120617200Y-85938084D01*
X120617200Y-84724160D01*
X120871200Y-84724160D01*
X120871200Y-85938084D01*
X121106113Y-86082344D01*
X121658520Y-85889114D01*
X122094932Y-85499196D01*
X122348909Y-84971951D01*
X122351558Y-84956186D01*
X122230417Y-84724160D01*
X120871200Y-84724160D01*
X120617200Y-84724160D01*
X119257983Y-84724160D01*
X119136842Y-84956186D01*
X112699261Y-84956186D01*
X112797959Y-84460000D01*
X112683885Y-83886511D01*
X112359029Y-83400330D01*
X112035772Y-83184336D01*
X112158490Y-83126821D01*
X112552688Y-82694947D01*
X112724958Y-82279026D01*
X112603817Y-82047000D01*
X111397000Y-82047000D01*
X111397000Y-82067000D01*
X111143000Y-82067000D01*
X111143000Y-82047000D01*
X111123000Y-82047000D01*
X111123000Y-81793000D01*
X111143000Y-81793000D01*
X111143000Y-81773000D01*
X111397000Y-81773000D01*
X111397000Y-81793000D01*
X112603817Y-81793000D01*
X112724958Y-81560974D01*
X112671895Y-81432860D01*
X116545738Y-81432860D01*
X117707439Y-82594561D01*
X117954001Y-82759308D01*
X118244840Y-82817160D01*
X119299552Y-82817160D01*
X119499785Y-83116830D01*
X119809269Y-83323621D01*
X119393468Y-83695124D01*
X119139491Y-84222369D01*
X119136842Y-84238134D01*
X119257983Y-84470160D01*
X120617200Y-84470160D01*
X120617200Y-84450160D01*
X120871200Y-84450160D01*
X120871200Y-84470160D01*
X122230417Y-84470160D01*
X122351558Y-84238134D01*
X122348909Y-84222369D01*
X122094932Y-83695124D01*
X121679131Y-83323621D01*
X121988615Y-83116830D01*
X122313471Y-82630649D01*
X122427545Y-82057160D01*
X122313471Y-81483671D01*
X121988615Y-80997490D01*
X121673834Y-80787160D01*
X121988615Y-80576830D01*
X122313471Y-80090649D01*
X122427545Y-79517160D01*
X122313471Y-78943671D01*
X121988615Y-78457490D01*
X121673834Y-78247160D01*
X121988615Y-78036830D01*
X122313471Y-77550649D01*
X122427545Y-76977160D01*
X122313471Y-76403671D01*
X121988615Y-75917490D01*
X121673834Y-75707160D01*
X121988615Y-75496830D01*
X122313471Y-75010649D01*
X122427545Y-74437160D01*
X122313471Y-73863671D01*
X121988615Y-73377490D01*
X121673834Y-73167160D01*
X121988615Y-72956830D01*
X122313471Y-72470649D01*
X122427545Y-71897160D01*
X122313471Y-71323671D01*
X121988615Y-70837490D01*
X121974287Y-70827917D01*
X121995517Y-70823922D01*
X122211641Y-70684850D01*
X122356631Y-70472650D01*
X122407640Y-70220760D01*
X122407640Y-68493560D01*
X122363362Y-68258243D01*
X122224290Y-68042119D01*
X122012090Y-67897129D01*
X121760200Y-67846120D01*
X119728200Y-67846120D01*
X119492883Y-67890398D01*
X119352752Y-67980570D01*
X117342061Y-65969879D01*
X117095499Y-65805132D01*
X116804660Y-65747280D01*
X106690380Y-65747280D01*
X106399541Y-65805132D01*
X106152979Y-65969879D01*
X105710000Y-66412858D01*
X105710000Y-63710000D01*
X122873000Y-63710000D01*
X122873000Y-94290000D01*
X122873000Y-94290000D01*
G37*
X122873000Y-94290000D02*
X112546716Y-94290000D01*
X112571441Y-94274090D01*
X112716431Y-94061890D01*
X112767440Y-93810000D01*
X112767440Y-91810000D01*
X112723162Y-91574683D01*
X112584090Y-91358559D01*
X112371890Y-91213569D01*
X112120000Y-91162560D01*
X110420000Y-91162560D01*
X110184683Y-91206838D01*
X109968559Y-91345910D01*
X109823569Y-91558110D01*
X109772560Y-91810000D01*
X109772560Y-92050000D01*
X108957440Y-92050000D01*
X108957440Y-91810000D01*
X108913162Y-91574683D01*
X108774090Y-91358559D01*
X108561890Y-91213569D01*
X108310000Y-91162560D01*
X106610000Y-91162560D01*
X106584240Y-91167407D01*
X106584240Y-90452223D01*
X106610000Y-90457440D01*
X108310000Y-90457440D01*
X108545317Y-90413162D01*
X108761441Y-90274090D01*
X108906431Y-90061890D01*
X108957440Y-89810000D01*
X108957440Y-87810000D01*
X108913162Y-87574683D01*
X108774090Y-87358559D01*
X108561890Y-87213569D01*
X108310000Y-87162560D01*
X108220000Y-87162560D01*
X108220000Y-86044802D01*
X108371644Y-85893158D01*
X108700641Y-85958600D01*
X108759359Y-85958600D01*
X109332848Y-85844526D01*
X109819029Y-85519670D01*
X110000000Y-85248828D01*
X110180971Y-85519670D01*
X110510000Y-85739520D01*
X110510000Y-87162560D01*
X110420000Y-87162560D01*
X110184683Y-87206838D01*
X109968559Y-87345910D01*
X109823569Y-87558110D01*
X109772560Y-87810000D01*
X109772560Y-89810000D01*
X109816838Y-90045317D01*
X109955910Y-90261441D01*
X110168110Y-90406431D01*
X110420000Y-90457440D01*
X112120000Y-90457440D01*
X112355317Y-90413162D01*
X112571441Y-90274090D01*
X112716431Y-90061890D01*
X112767440Y-89810000D01*
X112767440Y-87810000D01*
X112723162Y-87574683D01*
X112584090Y-87358559D01*
X112371890Y-87213569D01*
X112120000Y-87162560D01*
X112030000Y-87162560D01*
X112030000Y-85739520D01*
X112359029Y-85519670D01*
X112683885Y-85033489D01*
X112699261Y-84956186D01*
X119136842Y-84956186D01*
X119139491Y-84971951D01*
X119393468Y-85499196D01*
X119829880Y-85889114D01*
X120382287Y-86082344D01*
X120617200Y-85938084D01*
X120617200Y-84724160D01*
X120871200Y-84724160D01*
X120871200Y-85938084D01*
X121106113Y-86082344D01*
X121658520Y-85889114D01*
X122094932Y-85499196D01*
X122348909Y-84971951D01*
X122351558Y-84956186D01*
X122230417Y-84724160D01*
X120871200Y-84724160D01*
X120617200Y-84724160D01*
X119257983Y-84724160D01*
X119136842Y-84956186D01*
X112699261Y-84956186D01*
X112797959Y-84460000D01*
X112683885Y-83886511D01*
X112359029Y-83400330D01*
X112035772Y-83184336D01*
X112158490Y-83126821D01*
X112552688Y-82694947D01*
X112724958Y-82279026D01*
X112603817Y-82047000D01*
X111397000Y-82047000D01*
X111397000Y-82067000D01*
X111143000Y-82067000D01*
X111143000Y-82047000D01*
X111123000Y-82047000D01*
X111123000Y-81793000D01*
X111143000Y-81793000D01*
X111143000Y-81773000D01*
X111397000Y-81773000D01*
X111397000Y-81793000D01*
X112603817Y-81793000D01*
X112724958Y-81560974D01*
X112671895Y-81432860D01*
X116545738Y-81432860D01*
X117707439Y-82594561D01*
X117954001Y-82759308D01*
X118244840Y-82817160D01*
X119299552Y-82817160D01*
X119499785Y-83116830D01*
X119809269Y-83323621D01*
X119393468Y-83695124D01*
X119139491Y-84222369D01*
X119136842Y-84238134D01*
X119257983Y-84470160D01*
X120617200Y-84470160D01*
X120617200Y-84450160D01*
X120871200Y-84450160D01*
X120871200Y-84470160D01*
X122230417Y-84470160D01*
X122351558Y-84238134D01*
X122348909Y-84222369D01*
X122094932Y-83695124D01*
X121679131Y-83323621D01*
X121988615Y-83116830D01*
X122313471Y-82630649D01*
X122427545Y-82057160D01*
X122313471Y-81483671D01*
X121988615Y-80997490D01*
X121673834Y-80787160D01*
X121988615Y-80576830D01*
X122313471Y-80090649D01*
X122427545Y-79517160D01*
X122313471Y-78943671D01*
X121988615Y-78457490D01*
X121673834Y-78247160D01*
X121988615Y-78036830D01*
X122313471Y-77550649D01*
X122427545Y-76977160D01*
X122313471Y-76403671D01*
X121988615Y-75917490D01*
X121673834Y-75707160D01*
X121988615Y-75496830D01*
X122313471Y-75010649D01*
X122427545Y-74437160D01*
X122313471Y-73863671D01*
X121988615Y-73377490D01*
X121673834Y-73167160D01*
X121988615Y-72956830D01*
X122313471Y-72470649D01*
X122427545Y-71897160D01*
X122313471Y-71323671D01*
X121988615Y-70837490D01*
X121974287Y-70827917D01*
X121995517Y-70823922D01*
X122211641Y-70684850D01*
X122356631Y-70472650D01*
X122407640Y-70220760D01*
X122407640Y-68493560D01*
X122363362Y-68258243D01*
X122224290Y-68042119D01*
X122012090Y-67897129D01*
X121760200Y-67846120D01*
X119728200Y-67846120D01*
X119492883Y-67890398D01*
X119352752Y-67980570D01*
X117342061Y-65969879D01*
X117095499Y-65805132D01*
X116804660Y-65747280D01*
X106690380Y-65747280D01*
X106399541Y-65805132D01*
X106152979Y-65969879D01*
X105710000Y-66412858D01*
X105710000Y-63710000D01*
X122873000Y-63710000D01*
X122873000Y-94290000D01*
G36*
X116171278Y-79912860D02*
X112652958Y-79912860D01*
X112724958Y-79739026D01*
X112603817Y-79507000D01*
X111397000Y-79507000D01*
X111397000Y-79527000D01*
X111143000Y-79527000D01*
X111143000Y-79507000D01*
X111123000Y-79507000D01*
X111123000Y-79253000D01*
X111143000Y-79253000D01*
X111143000Y-79233000D01*
X111397000Y-79233000D01*
X111397000Y-79253000D01*
X112603817Y-79253000D01*
X112724958Y-79020974D01*
X112659270Y-78862380D01*
X115120798Y-78862380D01*
X116171278Y-79912860D01*
X116171278Y-79912860D01*
G37*
X116171278Y-79912860D02*
X112652958Y-79912860D01*
X112724958Y-79739026D01*
X112603817Y-79507000D01*
X111397000Y-79507000D01*
X111397000Y-79527000D01*
X111143000Y-79527000D01*
X111143000Y-79507000D01*
X111123000Y-79507000D01*
X111123000Y-79253000D01*
X111143000Y-79253000D01*
X111143000Y-79233000D01*
X111397000Y-79233000D01*
X111397000Y-79253000D01*
X112603817Y-79253000D01*
X112724958Y-79020974D01*
X112659270Y-78862380D01*
X115120798Y-78862380D01*
X116171278Y-79912860D01*
G36*
X115150580Y-75259962D02*
X115150580Y-76817140D01*
X115208432Y-77107979D01*
X115365053Y-77342380D01*
X112665582Y-77342380D01*
X112724958Y-77199026D01*
X112603817Y-76967000D01*
X111397000Y-76967000D01*
X111397000Y-76987000D01*
X111143000Y-76987000D01*
X111143000Y-76967000D01*
X111123000Y-76967000D01*
X111123000Y-76713000D01*
X111143000Y-76713000D01*
X111143000Y-76693000D01*
X111397000Y-76693000D01*
X111397000Y-76713000D01*
X112603817Y-76713000D01*
X112724958Y-76480974D01*
X112552688Y-76065053D01*
X112158490Y-75633179D01*
X112035772Y-75575664D01*
X112359029Y-75359670D01*
X112683885Y-74873489D01*
X112797959Y-74300000D01*
X112693988Y-73777300D01*
X113667918Y-73777300D01*
X115150580Y-75259962D01*
X115150580Y-75259962D01*
G37*
X115150580Y-75259962D02*
X115150580Y-76817140D01*
X115208432Y-77107979D01*
X115365053Y-77342380D01*
X112665582Y-77342380D01*
X112724958Y-77199026D01*
X112603817Y-76967000D01*
X111397000Y-76967000D01*
X111397000Y-76987000D01*
X111143000Y-76987000D01*
X111143000Y-76967000D01*
X111123000Y-76967000D01*
X111123000Y-76713000D01*
X111143000Y-76713000D01*
X111143000Y-76693000D01*
X111397000Y-76693000D01*
X111397000Y-76713000D01*
X112603817Y-76713000D01*
X112724958Y-76480974D01*
X112552688Y-76065053D01*
X112158490Y-75633179D01*
X112035772Y-75575664D01*
X112359029Y-75359670D01*
X112683885Y-74873489D01*
X112797959Y-74300000D01*
X112693988Y-73777300D01*
X113667918Y-73777300D01*
X115150580Y-75259962D01*
G36*
X116603460Y-73499742D02*
X116603460Y-74386360D01*
X116661312Y-74677199D01*
X116826059Y-74923761D01*
X116876859Y-74974561D01*
X117123421Y-75139308D01*
X117414260Y-75197160D01*
X119299552Y-75197160D01*
X119499785Y-75496830D01*
X119814566Y-75707160D01*
X119499785Y-75917490D01*
X119299552Y-76217160D01*
X116670580Y-76217160D01*
X116670580Y-74945160D01*
X116612728Y-74654321D01*
X116447981Y-74407759D01*
X114520121Y-72479899D01*
X114273559Y-72315152D01*
X113982720Y-72257300D01*
X112667686Y-72257300D01*
X112724958Y-72119026D01*
X112603817Y-71887000D01*
X111397000Y-71887000D01*
X111397000Y-71907000D01*
X111143000Y-71907000D01*
X111143000Y-71887000D01*
X111123000Y-71887000D01*
X111123000Y-71633000D01*
X111143000Y-71633000D01*
X111143000Y-71613000D01*
X111397000Y-71613000D01*
X111397000Y-71633000D01*
X112603817Y-71633000D01*
X112724958Y-71400974D01*
X112667686Y-71262700D01*
X114366418Y-71262700D01*
X116603460Y-73499742D01*
X116603460Y-73499742D01*
G37*
X116603460Y-73499742D02*
X116603460Y-74386360D01*
X116661312Y-74677199D01*
X116826059Y-74923761D01*
X116876859Y-74974561D01*
X117123421Y-75139308D01*
X117414260Y-75197160D01*
X119299552Y-75197160D01*
X119499785Y-75496830D01*
X119814566Y-75707160D01*
X119499785Y-75917490D01*
X119299552Y-76217160D01*
X116670580Y-76217160D01*
X116670580Y-74945160D01*
X116612728Y-74654321D01*
X116447981Y-74407759D01*
X114520121Y-72479899D01*
X114273559Y-72315152D01*
X113982720Y-72257300D01*
X112667686Y-72257300D01*
X112724958Y-72119026D01*
X112603817Y-71887000D01*
X111397000Y-71887000D01*
X111397000Y-71907000D01*
X111143000Y-71907000D01*
X111143000Y-71887000D01*
X111123000Y-71887000D01*
X111123000Y-71633000D01*
X111143000Y-71633000D01*
X111143000Y-71613000D01*
X111397000Y-71613000D01*
X111397000Y-71633000D01*
X112603817Y-71633000D01*
X112724958Y-71400974D01*
X112667686Y-71262700D01*
X114366418Y-71262700D01*
X116603460Y-73499742D01*
M02*
