M48
INCH,TZ
T1C0.040
%
G90
G05
T1
X42807Y-27252
X42807Y-28252
X42807Y-29252
X42807Y-30252
X42807Y-31252
X42807Y-32252
X42807Y-33252
X43807Y-27252
X43807Y-28252
X43807Y-29252
X43807Y-30252
X43807Y-31252
X43807Y-32252
X43807Y-33252
X47537Y-27306
X47537Y-28306
X47537Y-29306
X47537Y-30306
X47537Y-31306
X47537Y-32306
X47537Y-33306
X50550Y-27224
X50550Y-28224
X50550Y-29224
X50550Y-30224
X50550Y-31224
X50550Y-32224
X50550Y-33224
X50550Y-34224
X50550Y-35224
X50550Y-36224
X51550Y-27224
X51550Y-28224
X51550Y-29224
X51550Y-30224
X51550Y-31224
X51550Y-32224
X51550Y-33224
X51550Y-34224
X51550Y-35224
X51550Y-36224
X53550Y-26724
X54550Y-26724
X55050Y-28724
X55050Y-29724
X55050Y-30724
X55050Y-31724
X55050Y-32724
X55050Y-33724
X55050Y-34724
X55050Y-35724
T0
M30
